<?xml version="1.0" encoding="UTF-8" standalone="no"?>
<!-- Created with Inkscape (http://www.inkscape.org/) -->

<svg
   width="36"
   height="36"
   viewBox="0 0 9.5250003 9.5250003"
   version="1.1"
   id="svg5"
   inkscape:version="1.1 (c68e22c387, 2021-05-23)"
   sodipodi:docname="bot.svg"
   xmlns:inkscape="http://www.inkscape.org/namespaces/inkscape"
   xmlns:sodipodi="http://sodipodi.sourceforge.net/DTD/sodipodi-0.dtd"
   xmlns="http://www.w3.org/2000/svg"
   xmlns:svg="http://www.w3.org/2000/svg">
  <sodipodi:namedview
     id="namedview7"
     pagecolor="#ffffff"
     bordercolor="#666666"
     borderopacity="1.0"
     inkscape:pageshadow="2"
     inkscape:pageopacity="0.0"
     inkscape:pagecheckerboard="0"
     inkscape:document-units="mm"
     showgrid="false"
     fit-margin-top="0"
     fit-margin-left="0"
     fit-margin-right="0"
     fit-margin-bottom="0"
     units="px"
     width="36px"
     inkscape:zoom="2.9647587"
     inkscape:cx="-46.378142"
     inkscape:cy="23.779338"
     inkscape:window-width="1920"
     inkscape:window-height="1017"
     inkscape:window-x="-8"
     inkscape:window-y="-8"
     inkscape:window-maximized="1"
     inkscape:current-layer="layer1" />
  <defs
     id="defs2" />
  <g
     inkscape:label="Layer 1"
     inkscape:groupmode="layer"
     id="layer1"
     transform="translate(-33.646477,-48.282295)">
    <g
       id="g264"
       transform="matrix(0.07434608,0,0,0.06946108,30.890149,44.975914)">
      <path
         style="fill:#e9edee;stroke-width:0.264583"
         d="m 88.741395,183.35026 c -0.766493,-0.18709 -1.696905,-0.53889 -2.067584,-0.78177 -1.245285,-0.81594 -2.735305,-2.55997 -3.476342,-4.06896 -0.66458,-1.3533 -0.744278,-1.82151 -0.827905,-4.86385 l -0.09253,-3.3664 -0.965798,-0.15903 c -4.315394,-0.71057 -7.850354,-3.21904 -9.406501,-6.675 -0.276764,-0.61465 -0.580268,-1.11754 -0.674454,-1.11754 -0.09419,0 -0.328494,0.43485 -0.520682,0.96634 -0.509328,1.40852 -2.214173,3.12072 -3.776551,3.79284 -1.094922,0.47102 -1.728732,0.56544 -3.235073,0.48194 -2.92181,-0.16196 -4.939974,-1.4399 -6.303347,-3.99138 -0.594065,-1.11176 -0.597105,-1.1774 -0.597105,-12.89141 0,-11.61347 0.0083,-11.7974 0.608927,-13.49375 1.248491,-3.5261 4.081087,-6.76583 7.263339,-8.3073 1.555366,-0.75342 4.156361,-1.48228 5.2896,-1.48228 0.641511,0 0.822291,-0.17829 1.274318,-1.25677 1.328412,-3.16943 2.895089,-5.07368 5.380736,-6.54016 0.883904,-0.52148 1.400204,-0.96796 1.190625,-1.02961 -0.203526,-0.0599 -0.905828,-0.25301 -1.560671,-0.42919 -2.911687,-0.78336 -6.077707,-3.10809 -7.831736,-5.75065 -1.469003,-2.21314 -2.229336,-4.53757 -2.439728,-7.45853 l -0.179578,-2.49317 -1.704234,-0.34695 C 59.01063,101.05378 55.311324,97.142865 54.426559,91.872397 L 54.259998,90.88021 h -3.628533 c -3.263427,0 -3.659757,0.05 -3.938847,0.496892 -0.457493,0.732563 -2.477316,1.620626 -3.670823,1.613964 -3.050104,-0.01701 -5.50572,-2.879066 -5.006332,-5.834917 0.360673,-2.134804 2.672474,-4.191971 4.728442,-4.207629 1.242353,-0.0095 2.712737,0.543311 3.599388,1.35314 0.826495,0.754888 0.842822,0.757717 4.373149,0.757717 h 3.543556 l 0.166281,-0.992188 c 0.31493,-1.879155 0.96348,-3.516487 2.018969,-5.097094 1.797804,-2.692231 4.497668,-4.463265 7.742383,-5.078782 l 1.738011,-0.329698 0.0035,-2.122473 c 0.0044,-2.697927 0.749194,-6.319816 1.836759,-8.932265 2.898357,-6.962139 9.856165,-12.808702 16.416024,-13.794181 2.72021,-0.408653 31.675615,-0.408653 34.395825,0 6.79167,1.020304 13.83332,7.130413 16.68696,14.479447 0.91813,2.364472 1.56929,5.895608 1.56929,8.509948 v 1.91923 l 1.42957,0.178613 c 2.07558,0.259327 4.95555,1.73502 6.60447,3.384128 1.58256,1.582737 2.9462,4.138961 3.34352,6.267635 0.14731,0.789265 0.30117,1.468355 0.3419,1.509088 0.0407,0.04073 1.62661,0.09171 3.52416,0.113289 l 3.45009,0.03923 0.9046,-0.826225 c 2.20632,-2.01516 5.5939,-1.664039 7.35128,0.761952 3.07199,4.240752 -1.52222,9.67337 -6.24647,7.386402 -0.63788,-0.308793 -1.29942,-0.785043 -1.47009,-1.058334 -0.27909,-0.446894 -0.67542,-0.496892 -3.93885,-0.496892 h -3.62853 l -0.16656,0.992187 c -0.47349,2.820522 -1.58675,5.014074 -3.52622,6.948056 -1.71797,1.7131 -3.70856,2.77297 -6.13634,3.26723 l -1.70424,0.34695 -0.17957,2.49317 c -0.2104,2.92096 -0.97073,5.24539 -2.43973,7.45853 -1.75403,2.64256 -4.92005,4.96729 -7.83174,5.75065 -0.65484,0.17618 -1.35714,0.36932 -1.56067,0.42919 -0.20958,0.0617 0.30672,0.50813 1.19063,1.02961 2.48564,1.46648 4.05232,3.37073 5.38073,6.54016 0.45203,1.07848 0.63281,1.25677 1.27432,1.25677 1.13324,0 3.73423,0.72886 5.2896,1.48228 3.18225,1.54147 6.01485,4.7812 7.26334,8.3073 0.60063,1.69635 0.60893,1.88028 0.60893,13.49375 0,11.71401 -0.003,11.77965 -0.59711,12.89141 -0.76563,1.43283 -2.08735,2.75026 -3.3972,3.38616 -1.55661,0.75568 -4.49571,0.84575 -5.99254,0.18363 -1.65749,-0.73318 -3.24276,-2.245 -3.81612,-3.63927 -0.26649,-0.64805 -0.55575,-1.17873 -0.64279,-1.17927 -0.087,-5.3e-4 -0.38469,0.5019 -0.66146,1.11655 -1.55614,3.45596 -5.0911,5.96443 -9.4065,6.675 l -0.96579,0.15903 -0.10148,3.3664 c -0.0909,3.01535 -0.17726,3.52259 -0.82818,4.86414 -0.39969,0.82375 -1.19166,1.97683 -1.75993,2.5624 -2.54117,2.6185 -2.87824,2.67244 -16.54548,2.64805 -8.096134,-0.0144 -11.490783,-0.11217 -12.506121,-0.36001 z"
         id="path294" />
      <path
         style="fill:#ccd0d3;stroke-width:0.264583"
         d="m 89.158905,183.35994 c -2.480141,-0.68306 -4.505103,-2.49894 -5.72679,-5.13548 -0.587407,-1.26769 -0.709729,-1.97162 -0.829511,-4.7736 L 82.4621,170.16423 80.213141,169.6144 c -1.236927,-0.3024 -2.796627,-0.87178 -3.465999,-1.26529 -1.677215,-0.98601 -3.961524,-3.52849 -4.850299,-5.39848 l -0.740947,-1.55897 -0.644205,1.45521 c -1.183925,2.67441 -3.201789,4.18199 -5.928428,4.42923 -2.905038,0.26342 -5.478853,-1.19633 -6.779546,-3.84505 l -0.741616,-1.51022 v -11.37708 -11.37708 l 0.687476,-1.87909 c 1.864909,-5.09735 5.586882,-8.26611 10.948898,-9.32148 l 2.342856,-0.46113 0.453827,-1.33514 c 0.956588,-2.81424 3.066002,-5.23203 5.867386,-6.72516 l 1.607379,-0.85672 -1.866279,-0.47395 c -6.185299,-1.57077 -10.462931,-6.69568 -10.845257,-12.9934 -0.199948,-3.29358 -0.08968,-3.43416 1.542648,-1.96655 0.739524,0.66489 2.135635,1.59832 3.10247,2.0743 l 1.757886,0.8654 h 28.718419 28.71841 l 1.75789,-0.8654 c 0.96683,-0.47598 2.36295,-1.40941 3.10247,-2.0743 1.63508,-1.47009 1.75102,-1.32139 1.53738,1.97172 -0.41102,6.33546 -4.63682,11.41292 -10.80156,12.97847 l -1.90471,0.48371 1.65757,0.88347 c 2.79327,1.4888 4.85231,3.85974 5.8172,6.69841 l 0.45382,1.33514 2.34286,0.46113 c 5.36202,1.05537 9.08399,4.22413 10.9489,9.32148 l 0.68747,1.87909 v 11.37708 11.37708 l -0.74161,1.51022 c -1.30069,2.64872 -3.87451,4.10847 -6.77955,3.84505 -2.72664,-0.24724 -4.7445,-1.75482 -5.92843,-4.42923 l -0.6442,-1.45521 -0.74095,1.55897 c -0.88877,1.86999 -3.17308,4.41247 -4.8503,5.39848 -0.66937,0.39351 -2.22907,0.96289 -3.466,1.26529 l -2.24896,0.54983 -0.1405,3.28663 c -0.11978,2.80198 -0.2421,3.50591 -0.82951,4.7736 -1.251,2.6998 -3.24728,4.45736 -5.84969,5.15019 -1.91318,0.50934 -22.461261,0.4969 -24.318905,-0.0147 z M 73.466267,101.93706 c -2.414821,-0.85867 -4.370904,-3.109334 -4.894532,-5.631638 -0.197321,-0.9505 -0.271825,-4.111379 -0.216649,-9.191635 l 0.0841,-7.742952 0.741121,-1.50921 c 0.789771,-1.608275 1.705981,-2.525273 3.461396,-3.464374 l 1.089149,-0.582666 h 27.648958 27.64895 l 1.08915,0.582666 c 1.75542,0.939101 2.67163,1.856099 3.4614,3.464374 l 0.74112,1.50921 v 8.598958 c 0,8.185176 -0.0268,8.656896 -0.55712,9.803026 -0.7739,1.672574 -1.94635,2.928031 -3.45325,3.697721 l -1.2813,0.65446 -27.38437,0.0472 c -18.841124,0.0324 -27.632003,-0.0409 -28.178121,-0.23509 z m -10.180045,-0.3685 c -4.228767,-1.13637 -7.821583,-5.137535 -8.40963,-9.365434 l -0.202401,-1.455208 -3.789767,-0.07355 -3.789767,-0.07355 -0.89887,0.789218 c -3.093301,2.715953 -7.78681,0.702633 -7.78681,-3.340219 0,-1.648222 0.438319,-2.644328 1.590027,-3.613425 1.779752,-1.497563 4.022445,-1.496547 5.986587,0.0027 l 1.178061,0.899234 3.755269,-0.07334 3.75527,-0.07335 0.208505,-1.455208 c 0.655694,-4.576246 4.556539,-8.535453 9.400392,-9.541034 1.869776,-0.388164 2.099302,-0.129852 1.24415,1.400181 -1.217269,2.177931 -1.44449,4.124423 -1.44449,12.374186 0,8.239275 0.227655,10.197033 1.437468,12.361619 0.368503,0.65933 0.670009,1.30285 0.670009,1.43004 0,0.33623 -1.241999,0.25373 -2.904003,-0.19289 z m 73.283168,0.19289 c 0,-0.12719 0.3015,-0.77071 0.67001,-1.43004 1.20981,-2.164584 1.43747,-4.122342 1.43747,-12.361617 0,-8.249763 -0.22723,-10.196255 -1.44449,-12.374186 -0.86548,-1.548498 -0.63014,-1.78773 1.35924,-1.381756 4.72811,0.964868 8.63291,4.969469 9.2853,9.522609 l 0.2085,1.455208 3.75527,0.07334 3.75527,0.07334 1.17806,-0.899234 c 1.96414,-1.499264 4.20684,-1.50028 5.98659,-0.0027 1.15171,0.969097 1.59003,1.965203 1.59003,3.613425 0,4.042852 -4.69351,6.056172 -7.78681,3.340219 l -0.89887,-0.789218 -3.78977,0.07355 -3.78977,0.07355 -0.2024,1.455208 c -0.44204,3.178183 -2.76914,6.519815 -5.76125,8.272972 -1.80205,1.05587 -5.55238,1.92406 -5.55238,1.28536 z M 66.190225,71.727147 c 0,-8.852647 5.012963,-17.060181 12.821801,-20.992648 4.665979,-2.34975 5.519456,-2.442965 22.367784,-2.442965 16.84832,0 17.7018,0.09322 22.36778,2.442965 7.80884,3.932467 12.8218,12.140001 12.8218,20.992648 0,2.238218 -0.1627,2.587595 -0.8275,1.776925 -0.86982,-1.060675 -3.57617,-2.763545 -5.17876,-3.258534 -1.67857,-0.518456 -2.42122,-0.531994 -29.18332,-0.531994 -26.762103,0 -27.504759,0.01354 -29.183324,0.531994 -1.581792,0.488565 -4.245059,2.18722 -5.156797,3.289049 -0.66157,0.799502 -0.849464,0.399712 -0.849464,-1.80744 z"
         id="path292" />
      <path
         style="fill:#b9c3c5;stroke-width:0.264583"
         d="m 89.549239,183.37064 c -2.805348,-0.89065 -5.204669,-3.07926 -6.152274,-5.61196 -0.42477,-1.1353 -0.53799,-2.06934 -0.53799,-4.4383 0,-2.08492 -0.10091,-3.0799 -0.33073,-3.261 -0.181901,-0.14334 -0.984519,-0.3343 -1.783598,-0.42436 -2.044158,-0.23039 -4.616582,-1.57529 -6.36928,-3.32997 -1.31015,-1.31162 -1.92632,-2.32068 -3.161861,-5.17797 l -0.34323,-0.79375 -0.250857,0.92604 c -0.48292,1.7827 -0.849659,2.51768 -1.75786,3.52295 -3.154063,3.49117 -8.621685,2.74744 -10.717251,-1.45781 l -0.685332,-1.37529 0.0031,-11.12669 c 0.0034,-12.03768 0.0494,-12.51677 1.483269,-15.44749 0.996947,-2.03769 3.78526,-4.7684 5.964384,-5.84118 0.982695,-0.48378 2.520342,-0.97129 3.556355,-1.12753 1.003829,-0.15139 1.988383,-0.35538 2.1879,-0.45332 0.199517,-0.0979 0.620715,-0.89047 0.935995,-1.76119 1.096965,-3.02953 3.11177,-5.2901 6.026221,-6.76131 l 1.652085,-0.83397 -1.974987,-0.50021 c -2.922574,-0.74021 -4.657312,-1.71322 -6.76679,-3.79547 -2.151258,-2.1235 -3.388479,-4.30791 -3.955759,-6.98421 -0.412419,-1.9457 -0.50156,-4.68876 -0.159245,-4.90033 0.121727,-0.0752 0.733267,0.32653 1.358977,0.89279 1.466673,1.32732 3.736594,2.51707 5.510331,2.88817 1.984973,0.4153 54.240698,0.41122 56.197908,-0.004 1.85701,-0.39433 4.04192,-1.52849 5.48025,-2.84473 0.64226,-0.58775 1.26733,-1.00708 1.38906,-0.93185 0.34232,0.21157 0.25317,2.95463 -0.15924,4.90033 -1.10679,5.22158 -5.55424,9.68268 -10.79809,10.83121 -0.83674,0.18327 -1.52135,0.40853 -1.52135,0.50058 0,0.0921 0.65096,0.48663 1.44658,0.87683 2.6876,1.31813 4.77977,3.70085 5.85363,6.66655 0.31528,0.87072 0.73647,1.66326 0.93599,1.76119 0.19952,0.0979 1.18407,0.30193 2.1879,0.45332 4.89417,0.7381 9.27603,4.80905 10.6228,9.86906 0.29892,1.12308 0.37873,3.74979 0.38121,12.54714 l 0.003,11.12669 -0.68534,1.37529 c -0.8581,1.72198 -2.21155,2.86002 -4.03659,3.39412 -3.75181,1.09797 -7.29001,-1.09524 -8.38031,-5.19467 l -0.31666,-1.19063 -0.33943,0.79375 c -1.20772,2.82419 -1.84622,3.86491 -3.21055,5.23303 -1.77018,1.77508 -4.21544,3.03848 -6.34492,3.27824 -0.78361,0.0882 -1.57357,0.27769 -1.75547,0.42103 -0.22982,0.1811 -0.33073,1.17608 -0.33073,3.261 0,2.37874 -0.11259,3.3013 -0.54339,4.45273 -0.75818,2.02641 -2.53951,3.91493 -4.69315,4.97557 l -1.76246,0.86798 -11.11873,0.054 c -8.673445,0.0421 -11.363932,-0.0239 -12.233673,-0.3 z M 72.520815,101.13281 c -1.989005,-1.03459 -3.23638,-2.668833 -3.684444,-4.827142 -0.197385,-0.950796 -0.271886,-4.110897 -0.216702,-9.191881 0.07871,-7.246541 0.120129,-7.819284 0.646115,-8.933577 0.677775,-1.435859 1.942373,-2.750486 3.392734,-3.526955 l 1.072332,-0.574086 h 27.64896 27.64895 l 1.05834,0.572893 c 1.38355,0.748936 2.89745,2.335975 3.49176,3.66044 0.41457,0.923912 0.4857,2.041784 0.56003,8.801285 0.0559,5.084817 -0.0181,8.240368 -0.21565,9.191881 -0.44806,2.158309 -1.69544,3.792552 -3.68444,4.827142 l -1.65314,0.8599 H 101.37981 74.173958 Z m -9.947748,-0.18092 c -3.79969,-1.367897 -6.47214,-4.530433 -7.302306,-8.641422 l -0.368967,-1.827133 -3.906868,-0.07337 -3.906867,-0.07337 -1.025579,0.926549 c -1.202342,1.086244 -1.928776,1.3135 -3.665298,1.146644 -1.607022,-0.154417 -2.841932,-1.015521 -3.484059,-2.429447 -0.662895,-1.459653 -0.628388,-2.750142 0.111016,-4.151749 1.414836,-2.681946 4.961313,-3.178849 7.210211,-1.010237 l 0.813915,0.78486 3.925687,-0.07348 3.925687,-0.07348 0.350213,-1.719792 c 0.49703,-2.440757 1.707429,-4.73288 3.272206,-6.196547 1.484384,-1.388467 4.017367,-2.683496 5.79392,-2.962236 1.080897,-0.169592 1.152025,-0.145571 0.949134,0.320539 -0.120631,0.277127 -0.494538,1.277776 -0.830902,2.223661 -0.593992,1.670351 -0.611574,1.982211 -0.611574,10.847916 0,8.865706 0.0176,9.177565 0.611574,10.847916 0.336364,0.945886 0.703217,1.928148 0.815226,2.182808 0.16774,0.38137 0.07035,0.46134 -0.552257,0.45348 -0.415753,-0.005 -1.371603,-0.2312 -2.124112,-0.50211 z m 74.920973,0.0907 c 0.12088,-0.27779 0.495,-1.278985 0.83136,-2.224871 0.594,-1.670351 0.61158,-1.98221 0.61158,-10.847916 0,-8.865705 -0.0176,-9.177565 -0.61158,-10.847916 -0.33636,-0.945885 -0.71027,-1.946534 -0.8309,-2.223661 -0.20289,-0.46611 -0.13176,-0.490131 0.94914,-0.320539 1.77655,0.27874 4.30953,1.573769 5.79392,2.962236 1.56477,1.463667 2.77517,3.75579 3.2722,6.196547 l 0.35022,1.719792 3.92568,0.07348 3.92569,0.07348 0.81391,-0.76934 c 1.15932,-1.095816 1.79674,-1.36259 3.24392,-1.357648 1.73818,0.0059 3.17938,0.8607 3.9663,2.352365 0.7394,1.401607 0.7739,2.692096 0.11101,4.151749 -0.64213,1.413926 -1.87704,2.27503 -3.48406,2.429447 -1.73652,0.166856 -2.46295,-0.0604 -3.6653,-1.146644 l -1.02557,-0.926549 -3.90687,0.07337 -3.90687,0.07337 -0.37324,1.852083 c -0.20528,1.018646 -0.74104,2.542958 -1.19058,3.387362 -1.48752,2.794116 -4.8743,5.256683 -7.77668,5.654493 -1.1531,0.15805 -1.22716,0.13383 -1.02328,-0.33469 z M 66.276114,73.259901 c -0.08915,-0.232317 -0.08577,-1.586989 0.0075,-3.010383 0.273806,-4.178096 1.820579,-8.65221 4.197177,-12.140539 2.165961,-3.179166 6.455659,-6.582701 10.328815,-8.1951 3.741912,-1.557762 5.290862,-1.669668 21.628524,-1.562579 16.75687,0.109837 16.59187,0.09174 21.03436,2.306314 7.65412,3.81555 12.51891,11.245483 13.0126,19.873984 0.10858,1.89767 0.0676,2.865216 -0.12655,2.985181 -0.15795,0.09762 -0.89245,-0.360062 -1.63221,-1.017073 -1.60444,-1.424984 -2.90402,-2.121867 -4.95136,-2.655131 -2.27843,-0.59346 -54.51192,-0.59346 -56.790366,0 -2.045279,0.532728 -3.346741,1.230002 -4.944618,2.649142 -0.736049,0.653717 -1.397566,1.188577 -1.470035,1.188577 -0.07247,0 -0.204706,-0.190077 -0.293852,-0.422393 z"
         id="path290" />
      <path
         style="fill:#ee9ea7;stroke-width:0.264583"
         d="m 90.664183,183.57622 c -1.365478,-0.32263 -3.951936,-1.7809 -4.977268,-2.80623 -1.971648,-1.97165 -2.417318,-3.23583 -2.518277,-7.14331 -0.09908,-3.83478 -0.03031,-3.72154 -2.423991,-3.99153 -3.934809,-0.44382 -7.670244,-3.64768 -9.327631,-8.00026 -0.594929,-1.56238 -0.59636,-1.60456 -0.59636,-17.57343 0,-15.96887 0.0013,-16.01105 0.59636,-17.57343 1.251072,-3.28553 3.257246,-5.57242 6.184847,-7.05027 l 1.666462,-0.84122 -1.974988,-0.50021 c -2.922574,-0.74021 -4.657312,-1.71322 -6.766789,-3.79547 -2.151259,-2.1235 -3.388479,-4.30791 -3.955759,-6.98421 -0.412419,-1.9457 -0.50156,-4.68876 -0.159245,-4.90033 0.121727,-0.0752 0.733266,0.32653 1.358977,0.89279 1.466672,1.32732 3.736594,2.51707 5.510331,2.88817 1.984973,0.4153 54.240698,0.41122 56.197908,-0.004 1.85701,-0.39433 4.04192,-1.52849 5.48025,-2.84473 0.64226,-0.58775 1.26733,-1.00708 1.38906,-0.93185 0.34232,0.21157 0.25317,2.95463 -0.15924,4.90033 -1.10679,5.22158 -5.55424,9.68268 -10.79809,10.83121 -0.83674,0.18327 -1.52135,0.40853 -1.52135,0.50058 0,0.0921 0.65753,0.48985 1.46118,0.88399 2.70143,1.32491 4.78655,3.73728 6.01203,6.9556 0.59493,1.56238 0.59636,1.60456 0.59636,17.57343 0,15.96887 -0.001,16.01105 -0.59636,17.57343 -1.67127,4.38904 -5.37171,7.55466 -9.35576,8.00359 -2.36168,0.26612 -2.29691,0.1583 -2.39586,3.9882 -0.076,2.94066 -0.17062,3.5449 -0.73481,4.69142 -0.86582,1.75947 -2.54406,3.38737 -4.56838,4.43133 l -1.66319,0.85774 -10.71563,0.0471 c -5.89359,0.0259 -10.953746,-0.009 -11.244787,-0.078 z M 74.731134,101.72985 c -2.675282,-0.40012 -4.910151,-2.320181 -5.6076,-4.817704 -0.224875,-0.805262 -0.293862,-3.569589 -0.236371,-9.47152 0.07418,-7.615123 0.12541,-8.423502 0.593616,-9.367149 0.678246,-1.366975 2.090283,-2.749386 3.429566,-3.357611 1.035683,-0.470347 2.329328,-0.493049 28.411815,-0.498595 29.64176,-0.0063 28.05657,-0.082 30.04508,1.434708 0.48591,0.37062 1.23009,1.299451 1.65374,2.064065 l 0.77028,1.390208 0.08,8.422801 c 0.0884,9.31152 -0.002,10.006141 -1.54269,11.875534 -0.43839,0.531841 -1.47925,1.301973 -2.31303,1.711413 l -1.51595,0.74442 -26.19375,0.038 c -14.406563,0.0209 -26.815185,-0.055 -27.574716,-0.16856 z M 41.319393,92.276805 c -1.616949,-0.607582 -2.893478,-2.511229 -2.904605,-4.331544 -0.0032,-0.522814 0.271012,-1.475314 0.609351,-2.116667 1.463894,-2.774939 5.203314,-3.178045 7.437984,-0.801804 l 0.777106,0.826336 h 3.786957 3.786957 v 2.116667 2.116667 h -3.786957 -3.786957 l -0.777106,0.817372 c -0.427408,0.449553 -1.098614,0.985334 -1.49157,1.190625 -0.702152,0.36682 -2.871846,0.475181 -3.65116,0.182348 z M 157.60376,91.988107 c -0.43656,-0.279582 -1.08239,-0.821827 -1.43518,-1.204989 -0.6355,-0.690218 -0.67647,-0.696658 -4.43177,-0.696658 h -3.79034 v -2.116667 -2.116667 h 3.78696 3.78696 l 0.7771,-0.817371 c 1.09682,-1.15365 2.01263,-1.564543 3.47595,-1.559526 2.45832,0.0084 4.58594,2.088409 4.57139,4.469032 -0.008,1.346033 -0.84023,3.012331 -1.87033,3.74583 -1.21463,0.864889 -3.74324,1.019083 -4.87074,0.297016 z M 66.276114,73.259901 c -0.08915,-0.232317 -0.08577,-1.586989 0.0075,-3.010383 0.273806,-4.178096 1.820579,-8.65221 4.197177,-12.140539 2.165961,-3.179166 6.455659,-6.582701 10.328815,-8.1951 3.741912,-1.557762 5.290862,-1.669668 21.628524,-1.562579 16.75687,0.109837 16.59187,0.09174 21.03436,2.306314 7.65412,3.81555 12.51891,11.245483 13.0126,19.873984 0.10858,1.89767 0.0676,2.865216 -0.12655,2.985181 -0.15795,0.09762 -0.89245,-0.360062 -1.63221,-1.017073 -1.60444,-1.424984 -2.90402,-2.121867 -4.95136,-2.655131 -2.27843,-0.59346 -54.51192,-0.59346 -56.790366,0 -2.045279,0.532728 -3.346741,1.230002 -4.944618,2.649142 -0.736049,0.653717 -1.397566,1.188577 -1.470035,1.188577 -0.07247,0 -0.204706,-0.190077 -0.293852,-0.422393 z"
         id="path288" />
      <path
         style="fill:#f0d35c;stroke-width:0.264583"
         d="m 90.664183,183.57622 c -1.365478,-0.32263 -3.951936,-1.7809 -4.977268,-2.80623 -1.964007,-1.96401 -2.410547,-3.22743 -2.563357,-7.25265 -0.07276,-1.9166 -0.205822,-3.55779 -0.29569,-3.64708 -0.08987,-0.0893 -0.922592,-0.2846 -1.850491,-0.43404 -4.300942,-0.69264 -7.598216,-3.42209 -9.192347,-7.6093 l -0.669359,-1.75817 -0.19255,-15.08125 -0.192551,-15.08125 0.762503,-2.52261 c 1.244222,-4.11628 3.316242,-6.50491 7.001245,-8.07106 0.948754,-0.40322 1.655704,-0.80243 1.571003,-0.88714 -0.0847,-0.0847 -0.999797,-0.29651 -2.033542,-0.47069 -2.58331,-0.43528 -5.424715,-1.89113 -7.314091,-3.74753 -2.477127,-2.4339 -3.846047,-5.32445 -4.169436,-8.804 -0.249346,-2.68288 -0.0762,-2.87945 1.395349,-1.58414 1.365633,1.20208 3.403062,2.25156 5.155366,2.65553 0.741637,0.17097 10.961504,0.27 28.291393,0.27413 23.68032,0.006 27.33088,-0.0457 28.70729,-0.40416 1.81361,-0.47226 3.45129,-1.36897 4.9146,-2.69099 1.2617,-1.13987 1.44251,-0.86918 1.19539,1.78969 -0.32519,3.49891 -2.09422,7.04742 -4.62304,9.27337 -1.66888,1.46901 -4.61521,2.86041 -6.85676,3.2381 -1.03375,0.17418 -1.94884,0.38599 -2.03355,0.47069 -0.0847,0.0847 0.63483,0.48926 1.59896,0.89902 3.67816,1.56324 5.70815,3.91255 6.9716,8.06825 l 0.76419,2.51354 -0.19255,15.08125 -0.19255,15.08125 -0.66936,1.75817 c -1.59413,4.18721 -4.8914,6.91666 -9.19234,7.6093 -0.9279,0.14944 -1.76062,0.34475 -1.85049,0.43404 -0.0899,0.0893 -0.22293,1.73048 -0.29569,3.64708 -0.11386,2.99922 -0.22252,3.6681 -0.77989,4.80076 -0.86582,1.75947 -2.54406,3.38737 -4.56838,4.43133 l -1.66319,0.85773 -10.71563,0.0471 c -5.89359,0.0259 -10.953746,-0.009 -11.244787,-0.078 z M 74.731134,101.72985 c -2.675282,-0.40012 -4.910151,-2.320181 -5.6076,-4.817704 -0.224875,-0.805262 -0.293862,-3.569589 -0.236371,-9.47152 0.07418,-7.615123 0.12541,-8.423502 0.593616,-9.367149 0.678246,-1.366975 2.090283,-2.749386 3.429566,-3.357611 1.035683,-0.470347 2.329328,-0.493049 28.411815,-0.498595 29.64176,-0.0063 28.05657,-0.082 30.04508,1.434708 0.48591,0.37062 1.23009,1.299451 1.65374,2.064065 l 0.77028,1.390208 0.08,8.422801 c 0.0884,9.31152 -0.002,10.006141 -1.54269,11.875534 -0.43839,0.531841 -1.47925,1.301973 -2.31303,1.711413 l -1.51595,0.74442 -26.19375,0.038 c -14.406563,0.0209 -26.815185,-0.055 -27.574716,-0.16856 z M 41.319393,92.276805 c -1.616949,-0.607582 -2.893478,-2.511229 -2.904605,-4.331544 -0.0032,-0.522814 0.271012,-1.475314 0.609351,-2.116667 1.463894,-2.774939 5.203314,-3.178045 7.437984,-0.801804 l 0.777106,0.826336 h 3.786957 3.786957 v 2.116667 2.116667 h -3.786957 -3.786957 l -0.777106,0.817372 c -0.427408,0.449553 -1.098614,0.985334 -1.49157,1.190625 -0.702152,0.36682 -2.871846,0.475181 -3.65116,0.182348 z M 157.60376,91.988107 c -0.43656,-0.279582 -1.08239,-0.821827 -1.43518,-1.204989 -0.6355,-0.690218 -0.67647,-0.696658 -4.43177,-0.696658 h -3.79034 v -2.116667 -2.116667 h 3.78696 3.78696 l 0.7771,-0.817371 c 1.09682,-1.15365 2.01263,-1.564543 3.47595,-1.559526 2.45832,0.0084 4.58594,2.088409 4.57139,4.469032 -0.008,1.346033 -0.84023,3.012331 -1.87033,3.74583 -1.21463,0.864889 -3.74324,1.019083 -4.87074,0.297016 z M 66.536404,70.57344 c 0.287472,-4.59107 1.750157,-8.832178 4.258241,-12.346942 1.633378,-2.288976 4.814815,-5.216564 7.162035,-6.590572 2.233982,-1.307723 5.985602,-2.646397 8.606461,-3.071007 2.30174,-0.372909 27.331589,-0.372909 29.633329,0 2.62086,0.42461 6.37248,1.763284 8.60646,3.071007 2.34722,1.374008 5.52866,4.301596 7.16204,6.590572 1.53584,2.152289 2.89033,5.070224 3.54382,7.634365 0.5464,2.143916 1.02988,7.292264 0.68482,7.292264 -0.10491,0 -0.74789,-0.463662 -1.42884,-1.030359 -1.55945,-1.297796 -3.48138,-2.257996 -5.28601,-2.640899 -1.97471,-0.418989 -54.223201,-0.418989 -56.197908,0 -1.804633,0.382903 -3.726561,1.343103 -5.286012,2.640899 -0.68095,0.566697 -1.324015,1.030359 -1.429031,1.030359 -0.105015,0 -0.118247,-1.160859 -0.0294,-2.579687 z"
         id="path286" />
      <path
         style="fill:#63dab6;stroke-width:0.264583"
         d="m 90.664183,183.57622 c -1.365478,-0.32263 -3.951936,-1.7809 -4.977268,-2.80623 -1.964007,-1.96401 -2.410547,-3.22743 -2.563357,-7.25265 -0.07276,-1.9166 -0.205822,-3.55779 -0.29569,-3.64708 -0.08987,-0.0893 -0.922592,-0.2846 -1.850491,-0.43404 -4.300942,-0.69264 -7.598216,-3.42209 -9.192347,-7.6093 l -0.669359,-1.75817 -0.19255,-15.08125 -0.192551,-15.08125 0.762503,-2.52261 c 1.244222,-4.11628 3.316242,-6.50491 7.001245,-8.07106 0.948754,-0.40322 1.655704,-0.80243 1.571003,-0.88714 -0.0847,-0.0847 -0.999797,-0.29651 -2.033542,-0.47069 -2.58331,-0.43528 -5.424715,-1.89113 -7.314091,-3.74753 -2.477127,-2.4339 -3.846047,-5.32445 -4.169436,-8.804 -0.249346,-2.68288 -0.0762,-2.87945 1.395349,-1.58414 1.365633,1.20208 3.403062,2.25156 5.155366,2.65553 0.741637,0.17097 10.961504,0.27 28.291393,0.27413 23.68032,0.006 27.33088,-0.0457 28.70729,-0.40416 1.81361,-0.47226 3.45129,-1.36897 4.9146,-2.69099 1.2617,-1.13987 1.44251,-0.86918 1.19539,1.78969 -0.32519,3.49891 -2.09422,7.04742 -4.62304,9.27337 -1.66888,1.46901 -4.61521,2.86041 -6.85676,3.2381 -1.03375,0.17418 -1.94884,0.38599 -2.03355,0.47069 -0.0847,0.0847 0.63483,0.48926 1.59896,0.89902 3.67816,1.56324 5.70815,3.91255 6.9716,8.06825 l 0.76419,2.51354 -0.19255,15.08125 -0.19255,15.08125 -0.66936,1.75817 c -1.59413,4.18721 -4.8914,6.91666 -9.19234,7.6093 -0.9279,0.14944 -1.76062,0.34475 -1.85049,0.43404 -0.0899,0.0893 -0.22293,1.73048 -0.29569,3.64708 -0.11386,2.99922 -0.22252,3.6681 -0.77989,4.80076 -0.86582,1.75947 -2.54406,3.38737 -4.56838,4.43133 l -1.66319,0.85773 -10.71563,0.0471 c -5.89359,0.0259 -10.953746,-0.009 -11.244787,-0.078 z M 74.731134,101.72985 c -2.675282,-0.40012 -4.910151,-2.320181 -5.6076,-4.817704 -0.224875,-0.805262 -0.293862,-3.569589 -0.236371,-9.47152 0.07418,-7.615123 0.12541,-8.423502 0.593616,-9.367149 0.678246,-1.366975 2.090283,-2.749386 3.429566,-3.357611 1.035683,-0.470347 2.329328,-0.493049 28.411815,-0.498595 29.64176,-0.0063 28.05657,-0.082 30.04508,1.434708 0.48591,0.37062 1.23009,1.299451 1.65374,2.064065 l 0.77028,1.390208 0.08,8.422801 c 0.0884,9.31152 -0.002,10.006141 -1.54269,11.875534 -0.43839,0.531841 -1.47925,1.301973 -2.31303,1.711413 l -1.51595,0.74442 -26.19375,0.038 c -14.406563,0.0209 -26.815185,-0.055 -27.574716,-0.16856 z M 47.465126,89.028126 c 0.18179,-0.716192 0.18179,-1.400474 0,-2.116666 l -0.268633,-1.058334 h 3.808325 3.808325 v 2.116667 2.116667 H 51.004818 47.196493 Z M 147.94647,87.969793 v -2.116667 h 3.80833 3.80832 l -0.26863,1.058334 c -0.18179,0.716192 -0.18179,1.400474 0,2.116666 l 0.26863,1.058334 h -3.80832 -3.80833 z M 66.536404,70.57344 c 0.287472,-4.59107 1.750157,-8.832178 4.258241,-12.346942 1.633378,-2.288976 4.814815,-5.216564 7.162035,-6.590572 2.233982,-1.307723 5.985602,-2.646397 8.606461,-3.071007 2.30174,-0.372909 27.331589,-0.372909 29.633329,0 2.62086,0.42461 6.37248,1.763284 8.60646,3.071007 2.34722,1.374008 5.52866,4.301596 7.16204,6.590572 1.53584,2.152289 2.89033,5.070224 3.54382,7.634365 0.5464,2.143916 1.02988,7.292264 0.68482,7.292264 -0.10491,0 -0.74789,-0.463662 -1.42884,-1.030359 -1.55945,-1.297796 -3.48138,-2.257996 -5.28601,-2.640899 -1.97471,-0.418989 -54.223201,-0.418989 -56.197908,0 -1.804633,0.382903 -3.726561,1.343103 -5.286012,2.640899 -0.68095,0.566697 -1.324015,1.030359 -1.429031,1.030359 -0.105015,0 -0.118247,-1.160859 -0.0294,-2.579687 z"
         id="path284" />
      <path
         style="fill:#ee7986;stroke-width:0.264583"
         d="m 90.664183,183.57622 c -1.365478,-0.32263 -3.951936,-1.7809 -4.977268,-2.80623 -1.964007,-1.96401 -2.410547,-3.22743 -2.563357,-7.25265 -0.07276,-1.9166 -0.205822,-3.55779 -0.29569,-3.64708 -0.08987,-0.0893 -0.922592,-0.2846 -1.850491,-0.43404 -4.300942,-0.69264 -7.598216,-3.42209 -9.192347,-7.6093 l -0.669359,-1.75817 -0.19255,-15.08125 -0.192551,-15.08125 0.762503,-2.52261 c 1.244222,-4.11628 3.316242,-6.50491 7.001245,-8.07106 0.948754,-0.40322 1.655704,-0.80243 1.571003,-0.88714 -0.0847,-0.0847 -0.999797,-0.29651 -2.033542,-0.47069 -2.58331,-0.43528 -5.424715,-1.89113 -7.314091,-3.74753 -2.477127,-2.4339 -3.846047,-5.32445 -4.169436,-8.804 -0.249346,-2.68288 -0.0762,-2.87945 1.395349,-1.58414 1.365633,1.20208 3.403062,2.25156 5.155366,2.65553 0.741637,0.17097 10.961504,0.27 28.291393,0.27413 23.68032,0.006 27.33088,-0.0457 28.70729,-0.40416 1.81361,-0.47226 3.45129,-1.36897 4.9146,-2.69099 1.2617,-1.13987 1.44251,-0.86918 1.19539,1.78969 -0.32519,3.49891 -2.09422,7.04742 -4.62304,9.27337 -1.66888,1.46901 -4.61521,2.86041 -6.85676,3.2381 -1.03375,0.17418 -1.94884,0.38599 -2.03355,0.47069 -0.0847,0.0847 0.63483,0.48926 1.59896,0.89902 3.67816,1.56324 5.70815,3.91255 6.9716,8.06825 l 0.76419,2.51354 -0.19255,15.08125 -0.19255,15.08125 -0.66936,1.75817 c -1.59413,4.18721 -4.8914,6.91666 -9.19234,7.6093 -0.9279,0.14944 -1.76062,0.34475 -1.85049,0.43404 -0.0899,0.0893 -0.22293,1.73048 -0.29569,3.64708 -0.11386,2.99922 -0.22252,3.6681 -0.77989,4.80076 -0.86582,1.75947 -2.54406,3.38737 -4.56838,4.43133 l -1.66319,0.85773 -10.71563,0.0471 c -5.89359,0.0259 -10.953746,-0.009 -11.244787,-0.078 z M 81.357835,94.833116 c -3.194347,-0.619749 -5.363999,-3.146184 -5.591252,-6.510681 -0.259844,-3.847052 2.867679,-7.231808 6.682208,-7.231808 2.316131,0 3.537593,0.475445 5.08376,1.978821 2.96179,2.87982 2.880613,7.267085 -0.185719,10.037331 -1.746041,1.577443 -3.761708,2.158463 -5.988997,1.726337 z m 37.298345,-0.0013 c -1.40059,-0.271502 -1.97868,-0.582387 -3.29603,-1.772533 -2.06812,-1.868424 -2.74631,-4.335465 -1.95064,-7.095773 0.35808,-1.242248 0.73342,-1.839881 1.81755,-2.894013 1.55189,-1.508937 2.77419,-1.981694 5.10115,-1.973011 2.72872,0.01019 4.88146,1.480339 6.12558,4.18329 1.15626,2.512052 0.55339,5.620057 -1.48568,7.659121 -1.59013,1.590133 -4.0572,2.329995 -6.31193,1.892919 z m -71.191054,-5.80369 c 0.18179,-0.716192 0.18179,-1.400474 0,-2.116666 l -0.268633,-1.058334 h 3.808325 3.808325 v 2.116667 2.116667 H 51.004818 47.196493 Z M 147.94647,87.969793 v -2.116667 h 3.80833 3.80832 l -0.26863,1.058334 c -0.18179,0.716192 -0.18179,1.400474 0,2.116666 l 0.26863,1.058334 h -3.80832 -3.80833 z M 66.536404,70.57344 c 0.287472,-4.59107 1.750157,-8.832178 4.258241,-12.346942 1.633378,-2.288976 4.814815,-5.216564 7.162035,-6.590572 2.233982,-1.307723 5.985602,-2.646397 8.606461,-3.071007 2.30174,-0.372909 27.331589,-0.372909 29.633329,0 2.62086,0.42461 6.37248,1.763284 8.60646,3.071007 2.34722,1.374008 5.52866,4.301596 7.16204,6.590572 1.53584,2.152289 2.89033,5.070224 3.54382,7.634365 0.5464,2.143916 1.02988,7.292264 0.68482,7.292264 -0.10491,0 -0.74789,-0.463662 -1.42884,-1.030359 -1.55945,-1.297796 -3.48138,-2.257996 -5.28601,-2.640899 -1.97471,-0.418989 -54.223201,-0.418989 -56.197908,0 -1.804633,0.382903 -3.726561,1.343103 -5.286012,2.640899 -0.68095,0.566697 -1.324015,1.030359 -1.429031,1.030359 -0.105015,0 -0.118247,-1.160859 -0.0294,-2.579687 z"
         id="path282" />
      <path
         style="fill:#95a3a3;stroke-width:0.264583"
         d="m 90.664183,183.57526 c -0.949513,-0.22609 -3.356044,-1.42406 -4.286764,-2.13395 -1.100595,-0.83947 -2.348745,-2.60185 -2.851141,-4.02579 -0.228561,-0.64781 -0.391277,-2.36151 -0.426387,-4.49064 l -0.05678,-3.44306 -1.216546,-0.16665 c -3.156399,-0.43237 -4.782917,-1.17017 -6.813587,-3.09069 -1.797092,-1.69961 -2.631064,-3.14202 -3.277073,-5.66789 -0.47684,-1.86443 -0.518597,-2.97357 -0.518597,-13.77495 0,-7.76412 -0.08971,-11.6918 -0.264583,-11.58372 -0.170518,0.10538 -0.263144,-0.90027 -0.260532,-2.82866 0.0026,-1.89034 0.09227,-2.85277 0.24362,-2.61361 0.175265,0.27696 0.286573,0.0994 0.4147,-0.66146 0.868225,-5.15597 3.650707,-8.42405 8.531899,-10.02085 0.763985,-0.24993 1.389063,-0.55002 1.389063,-0.66687 0,-0.28537 -0.978758,-0.53073 -2.134791,-0.53515 -1.31313,-0.005 -3.527253,-0.69451 -5.402926,-1.68249 -4.038216,-2.12707 -7.014366,-7.08944 -7.014366,-11.6956 0,-0.64768 0.07358,-1.1776 0.163507,-1.1776 0.08993,0 0.561449,0.34939 1.047822,0.77643 1.360442,1.19449 2.998266,2.06584 4.731239,2.5171 2.332011,0.60725 55.0509,0.62105 57.37762,0.015 1.94809,-0.50741 3.38554,-1.24658 4.65557,-2.39397 0.55678,-0.50302 1.0872,-0.91458 1.1787,-0.91458 0.0915,0 0.16637,0.52992 0.16637,1.1776 0,4.60616 -2.97615,9.56853 -7.01436,11.6956 -1.87568,0.98798 -4.0898,1.67747 -5.40293,1.68249 -1.15558,0.004 -2.13479,0.24975 -2.13479,0.53484 0,0.11669 0.77584,0.47034 1.72409,0.78589 4.52621,1.50623 7.15652,4.6716 8.19757,9.86513 0.0814,0.40613 0.26359,0.66699 0.40485,0.57969 0.16016,-0.099 0.25682,0.94842 0.25682,2.78291 0,1.89372 -0.0943,2.8834 -0.26458,2.77813 -0.17487,-0.10808 -0.26458,3.8196 -0.26458,11.58372 0,10.80138 -0.0418,11.91052 -0.5186,13.77495 -0.64601,2.52587 -1.47998,3.96828 -3.27707,5.66789 -2.03067,1.92052 -3.65719,2.65832 -6.81359,3.09069 l -1.21655,0.16665 -0.0568,3.44306 c -0.0619,3.75475 -0.3206,4.84726 -1.58173,6.68026 -0.91245,1.32619 -2.00176,2.20916 -4.01406,3.25367 l -1.43933,0.7471 -10.71563,0.0477 c -5.89359,0.0262 -10.953746,-0.009 -11.244787,-0.0783 z M 81.357835,94.833116 c -3.194347,-0.619749 -5.363999,-3.146184 -5.591252,-6.510681 -0.259844,-3.847052 2.867679,-7.231808 6.682208,-7.231808 2.316131,0 3.537593,0.475445 5.08376,1.978821 2.96179,2.87982 2.880613,7.267085 -0.185719,10.037331 -1.746041,1.577443 -3.761708,2.158463 -5.988997,1.726337 z m 37.298345,-0.0013 c -1.40059,-0.271502 -1.97868,-0.582387 -3.29603,-1.772533 -2.06812,-1.868424 -2.74631,-4.335465 -1.95064,-7.095773 0.35808,-1.242248 0.73342,-1.839881 1.81755,-2.894013 1.55189,-1.508937 2.77419,-1.981694 5.10115,-1.973011 2.72872,0.01019 4.88146,1.480339 6.12558,4.18329 1.15626,2.512052 0.55339,5.620057 -1.48568,7.659121 -1.59013,1.590133 -4.0572,2.329995 -6.31193,1.892919 z m -71.191054,-5.80369 c 0.18179,-0.716192 0.18179,-1.400474 0,-2.116666 l -0.268633,-1.058334 h 3.808325 3.808325 v 2.116667 2.116667 H 51.004818 47.196493 Z M 147.94647,87.969793 v -2.116667 h 3.80833 3.80832 l -0.26863,1.058334 c -0.18179,0.716192 -0.18179,1.400474 0,2.116666 l 0.26863,1.058334 h -3.80832 -3.80833 z M 66.800749,70.176565 C 67.290887,62.7337 71.58055,55.681977 77.90285,51.925968 c 1.83601,-1.090754 6.460159,-2.843208 7.513764,-2.847557 0.315294,-0.0013 0.622872,-0.151194 0.683506,-0.333095 0.146352,-0.439053 30.27447,-0.488124 30.56902,-0.04979 0.10384,0.154518 0.87156,0.430536 1.70607,0.613375 7.86317,1.722815 14.40282,8.006802 16.74759,16.092837 0.65311,2.2523 1.20428,7.222221 0.80095,7.222221 -0.10796,0 -0.68702,-0.420054 -1.28681,-0.933453 -1.33629,-1.143808 -3.29493,-2.083914 -5.15818,-2.475812 -1.99109,-0.418788 -54.239372,-0.413988 -56.197908,0.0052 -1.842492,0.394316 -3.875193,1.372467 -5.18886,2.496917 -0.582914,0.498953 -1.14817,0.907186 -1.256128,0.907186 -0.107955,0 -0.123756,-1.101328 -0.03512,-2.447395 z"
         id="path280" />
      <path
         style="fill:#fd5263;stroke-width:0.264583"
         d="m 83.599464,169.66699 c -0.480031,-0.10523 -1.646687,-0.31965 -2.592573,-0.47648 -2.378744,-0.3944 -4.243686,-1.31074 -5.94788,-2.9225 -1.825009,-1.72601 -2.674133,-3.17099 -3.292515,-5.60295 -0.438743,-1.72549 -0.496321,-3.3615 -0.570386,-16.20673 -0.04531,-7.85812 0.01029,-14.76375 0.123576,-15.34583 1.041853,-5.35366 3.67428,-8.43998 8.562726,-10.03916 0.763985,-0.24993 1.389063,-0.55002 1.389063,-0.66687 0,-0.28537 -0.978758,-0.53073 -2.134791,-0.53515 -1.31313,-0.005 -3.527253,-0.69451 -5.402926,-1.68249 -4.038216,-2.12707 -7.014366,-7.08944 -7.014366,-11.6956 0,-0.64768 0.07358,-1.1776 0.163507,-1.1776 0.08993,0 0.561449,0.34939 1.047822,0.77643 1.360442,1.19449 2.998266,2.06584 4.731239,2.5171 2.332011,0.60725 55.0509,0.62105 57.37762,0.015 1.94809,-0.50741 3.38554,-1.24658 4.65557,-2.39397 0.55678,-0.50302 1.0872,-0.91458 1.1787,-0.91458 0.0915,0 0.16637,0.52992 0.16637,1.1776 0,4.60616 -2.97615,9.56853 -7.01436,11.6956 -1.87568,0.98798 -4.0898,1.67747 -5.40293,1.68249 -1.15558,0.004 -2.13479,0.24975 -2.13479,0.53484 0,0.11669 0.77584,0.47034 1.72409,0.78589 4.34519,1.44599 7.02449,4.49784 8.11186,9.2398 0.17962,0.78331 0.2563,6.33997 0.21751,15.7619 -0.0541,13.15363 -0.10682,14.73652 -0.54819,16.47131 -0.61881,2.43219 -1.46797,3.8771 -3.29281,5.60295 -1.73522,1.64111 -3.58654,2.53563 -6.05917,2.92769 -1.0071,0.15969 -1.9476,0.36234 -2.08999,0.45035 -0.37206,0.22994 -34.906848,0.25006 -35.951976,0.0209 z M 81.357835,94.833116 c -3.194347,-0.619749 -5.363999,-3.146184 -5.591252,-6.510681 -0.259844,-3.847052 2.867679,-7.231808 6.682208,-7.231808 2.316131,0 3.537593,0.475445 5.08376,1.978821 2.96179,2.87982 2.880613,7.267085 -0.185719,10.037331 -1.746041,1.577443 -3.761708,2.158463 -5.988997,1.726337 z m 37.298345,-0.0013 c -1.40059,-0.271502 -1.97868,-0.582387 -3.29603,-1.772533 -2.06812,-1.868424 -2.74631,-4.335465 -1.95064,-7.095773 0.35808,-1.242248 0.73342,-1.839881 1.81755,-2.894013 1.55189,-1.508937 2.77419,-1.981694 5.10115,-1.973011 2.72872,0.01019 4.88146,1.480339 6.12558,4.18329 1.15626,2.512052 0.55339,5.620057 -1.48568,7.659121 -1.59013,1.590133 -4.0572,2.329995 -6.31193,1.892919 z m -70.877841,-6.862 V 86.11771 h 3.252818 3.252819 v 1.852083 1.852083 h -3.252819 -3.252818 z m 100.697301,0 V 86.11771 h 3.25282 3.25282 v 1.852083 1.852083 h -3.25282 -3.25282 z M 66.800749,70.176565 C 67.290887,62.7337 71.58055,55.681977 77.90285,51.925968 c 1.83601,-1.090754 6.460159,-2.843208 7.513764,-2.847557 0.315294,-0.0013 0.622872,-0.151194 0.683506,-0.333095 0.146352,-0.439053 30.27447,-0.488124 30.56902,-0.04979 0.10384,0.154518 0.87156,0.430536 1.70607,0.613375 7.86317,1.722815 14.40282,8.006802 16.74759,16.092837 0.65311,2.2523 1.20428,7.222221 0.80095,7.222221 -0.10796,0 -0.68702,-0.420054 -1.28681,-0.933453 -1.33629,-1.143808 -3.29493,-2.083914 -5.15818,-2.475812 -1.99109,-0.418788 -54.239372,-0.413988 -56.197908,0.0052 -1.842492,0.394316 -3.875193,1.372467 -5.18886,2.496917 -0.582914,0.498953 -1.14817,0.907186 -1.256128,0.907186 -0.107955,0 -0.123756,-1.101328 -0.03512,-2.447395 z"
         id="path278" />
      <path
         style="fill:#7d8a8b;stroke-width:0.264583"
         d="m 83.599464,169.66699 c -0.480031,-0.10523 -1.646687,-0.31965 -2.592573,-0.47648 -2.378744,-0.3944 -4.243686,-1.31074 -5.94788,-2.9225 -1.825009,-1.72601 -2.674133,-3.17099 -3.292515,-5.60295 -0.438743,-1.72549 -0.496321,-3.3615 -0.570386,-16.20673 -0.04531,-7.85812 0.01029,-14.76375 0.123576,-15.34583 0.678805,-3.48809 2.096614,-6.08111 4.27323,-7.81526 1.347668,-1.07371 2.183117,-1.49998 4.452649,-2.2719 l 1.84776,-0.62847 h 19.465775 19.46578 l 2.05618,0.68478 c 4.69255,1.56276 7.32608,4.47926 8.44303,9.3502 0.17962,0.78331 0.2563,6.33996 0.21751,15.7619 -0.0541,13.15363 -0.10682,14.73652 -0.54819,16.47131 -0.61881,2.43219 -1.46797,3.8771 -3.29281,5.60295 -1.73522,1.64111 -3.58654,2.53563 -6.05917,2.92769 -1.0071,0.15969 -1.9476,0.36234 -2.08999,0.45034 -0.37206,0.22995 -34.906848,0.25007 -35.951976,0.021 z M 81.357835,94.833116 c -3.194347,-0.619749 -5.363999,-3.146184 -5.591252,-6.510681 -0.259844,-3.847052 2.867679,-7.231808 6.682208,-7.231808 2.316131,0 3.537593,0.475445 5.08376,1.978821 2.96179,2.87982 2.880613,7.267085 -0.185719,10.037331 -1.746041,1.577443 -3.761708,2.158463 -5.988997,1.726337 z m 37.298345,-0.0013 c -1.40059,-0.271502 -1.97868,-0.582387 -3.29603,-1.772533 -2.06812,-1.868424 -2.74631,-4.335465 -1.95064,-7.095773 0.35808,-1.242248 0.73342,-1.839881 1.81755,-2.894013 1.55189,-1.508937 2.77419,-1.981694 5.10115,-1.973011 2.72872,0.01019 4.88146,1.480339 6.12558,4.18329 1.15626,2.512052 0.55339,5.620057 -1.48568,7.659121 -1.59013,1.590133 -4.0572,2.329995 -6.31193,1.892919 z m -70.877841,-6.862 V 86.11771 h 3.252818 3.252819 v 1.852083 1.852083 h -3.252819 -3.252818 z m 100.697301,0 V 86.11771 h 3.25282 3.25282 v 1.852083 1.852083 h -3.25282 -3.25282 z"
         id="path276" />
      <path
         style="fill:#dc4b5e;stroke-width:0.264583"
         d="m 83.100716,169.615 c -0.06858,-0.0686 -0.954701,-0.2563 -1.969156,-0.41716 -2.48571,-0.39415 -4.334695,-1.28623 -6.072549,-2.92983 -1.85638,-1.75568 -2.682502,-3.1861 -3.338653,-5.78083 -0.501928,-1.98485 -0.523264,-2.81846 -0.441716,-17.2593 0.08544,-15.12959 0.08748,-15.17855 0.701458,-16.83782 0.711612,-1.92312 2.111859,-3.89698 3.612816,-5.09282 1.347668,-1.07371 2.183117,-1.49998 4.452649,-2.2719 l 1.84776,-0.62847 h 19.465775 19.46578 l 2.05618,0.68478 c 3.93001,1.30881 6.44543,3.61867 7.83808,7.19754 l 0.69069,1.77498 0.0784,15.17371 c 0.0746,14.4277 0.0525,15.27625 -0.44899,17.2593 -0.29007,1.14708 -0.83401,2.60877 -1.20875,3.24822 -0.95068,1.62222 -3.31701,3.78323 -4.96823,4.53715 -2.68446,1.22569 -3.49407,1.27381 -23.10082,1.37319 -10.194829,0.0517 -18.592164,0.0378 -18.660744,-0.0307 z M 81.357835,94.833116 c -3.194347,-0.619749 -5.363999,-3.146184 -5.591252,-6.510681 -0.259844,-3.847052 2.867679,-7.231808 6.682208,-7.231808 2.316131,0 3.537593,0.475445 5.08376,1.978821 2.96179,2.87982 2.880613,7.267085 -0.185719,10.037331 -1.746041,1.577443 -3.761708,2.158463 -5.988997,1.726337 z m 37.298345,-0.0013 c -1.40059,-0.271502 -1.97868,-0.582387 -3.29603,-1.772533 -2.06812,-1.868424 -2.74631,-4.335465 -1.95064,-7.095773 0.35808,-1.242248 0.73342,-1.839881 1.81755,-2.894013 1.55189,-1.508937 2.77419,-1.981694 5.10115,-1.973011 2.72872,0.01019 4.88146,1.480339 6.12558,4.18329 1.15626,2.512052 0.55339,5.620057 -1.48568,7.659121 -1.59013,1.590133 -4.0572,2.329995 -6.31193,1.892919 z"
         id="path274" />
      <path
         style="fill:#16a085;stroke-width:0.264583"
         d="m 84.911609,154.21057 c -0.0593,-13.47924 -0.120345,-15.54189 -0.465135,-15.71679 -0.218281,-0.11073 -2.004218,-0.50559 -3.968749,-0.87747 -1.964531,-0.37187 -4.822031,-1.07215 -6.35,-1.55616 l -2.778125,-0.88002 -0.07573,-2.57079 c -0.04235,-1.43771 0.03123,-2.5708 0.166936,-2.5708 0.133464,0 1.051798,0.30456 2.040744,0.6768 9.915744,3.73227 28.99134,4.9168 44.13192,2.74042 3.87626,-0.55719 9.68183,-1.94071 12.0204,-2.86459 0.76937,-0.30394 1.51783,-0.55263 1.66323,-0.55263 0.16316,0 0.23538,0.98418 0.18864,2.5708 l -0.0757,2.57079 -2.77812,0.88002 c -1.52797,0.48401 -4.38547,1.18429 -6.35,1.55616 -1.96453,0.37188 -3.75047,0.76674 -3.96875,0.87747 -0.34479,0.1749 -0.40583,2.23755 -0.46514,15.71679 l -0.0683,15.51547 h -2.37698 -2.37699 l -0.0683,-15.27969 -0.0683,-15.27968 -3.96875,0.13229 c -2.18281,0.0728 -5.57609,0.13229 -7.54062,0.13229 -1.964538,0 -5.357819,-0.0595 -7.540632,-0.13229 l -3.968749,-0.13229 -0.0683,15.27968 -0.0683,15.27969 H 87.356857 84.979872 Z M 81.357835,94.833116 c -3.194347,-0.619749 -5.363999,-3.146184 -5.591252,-6.510681 -0.259844,-3.847052 2.867679,-7.231808 6.682208,-7.231808 2.316131,0 3.537593,0.475445 5.08376,1.978821 2.96179,2.87982 2.880613,7.267085 -0.185719,10.037331 -1.746041,1.577443 -3.761708,2.158463 -5.988997,1.726337 z m 37.298345,-0.0013 c -1.40059,-0.271502 -1.97868,-0.582387 -3.29603,-1.772533 -2.06812,-1.868424 -2.74631,-4.335465 -1.95064,-7.095773 0.35808,-1.242248 0.73342,-1.839881 1.81755,-2.894013 1.55189,-1.508937 2.77419,-1.981694 5.10115,-1.973011 2.72872,0.01019 4.88146,1.480339 6.12558,4.18329 1.15626,2.512052 0.55339,5.620057 -1.48568,7.659121 -1.59013,1.590133 -4.0572,2.329995 -6.31193,1.892919 z"
         id="path272" />
      <path
         style="fill:#973447;stroke-width:0.264583"
         d="m 84.911609,154.21057 c -0.0593,-13.47924 -0.120345,-15.54189 -0.465135,-15.71679 -0.218281,-0.11073 -2.004218,-0.50559 -3.968749,-0.87747 -1.964531,-0.37187 -4.822031,-1.07215 -6.35,-1.55616 l -2.778125,-0.88002 -0.07573,-2.57079 c -0.04235,-1.43771 0.03123,-2.5708 0.166936,-2.5708 0.133464,0 1.051798,0.30456 2.040744,0.6768 9.915744,3.73227 28.99134,4.9168 44.13192,2.74042 3.87626,-0.55719 9.68183,-1.94071 12.0204,-2.86459 0.76937,-0.30394 1.51783,-0.55263 1.66323,-0.55263 0.16316,0 0.23538,0.98418 0.18864,2.5708 l -0.0757,2.57079 -2.77812,0.88002 c -1.52797,0.48401 -4.38547,1.18429 -6.35,1.55616 -1.96453,0.37188 -3.75047,0.76674 -3.96875,0.87747 -0.34479,0.1749 -0.40583,2.23755 -0.46514,15.71679 l -0.0683,15.51547 h -2.37698 -2.37699 l -0.0683,-15.27969 -0.0683,-15.27968 -3.96875,0.13229 c -2.18281,0.0728 -5.57609,0.13229 -7.54062,0.13229 -1.964538,0 -5.357819,-0.0595 -7.540632,-0.13229 l -3.968749,-0.13229 -0.0683,15.27968 -0.0683,15.27969 H 87.356825 84.97984 Z"
         id="path270" />
      <path
         style="fill:#802c3f;stroke-width:0.264583"
         d="m 85.504808,154.17778 c 0,-11.8291 -0.07514,-15.40909 -0.330729,-15.75684 -0.218295,-0.29701 -1.140267,-0.58947 -2.711979,-0.86026 -2.926707,-0.50426 -5.922015,-1.24197 -8.797396,-2.16671 l -2.182812,-0.702 v -2.06213 c 0,-1.13417 0.03614,-2.06213 0.08031,-2.06213 0.04417,0 1.305917,0.41274 2.803887,0.91721 14.259607,4.80215 40.582471,4.72685 54.443061,-0.15574 1.1889,-0.41881 2.2307,-0.76147 2.3151,-0.76147 0.0844,0 0.15347,0.93849 0.15347,2.08554 v 2.08555 l -2.18281,0.68676 c -3.11108,0.9788 -4.95317,1.43072 -8.26823,2.02843 -1.95814,0.35305 -3.01863,0.67071 -3.24114,0.97084 -0.25564,0.34481 -0.33073,3.92178 -0.33073,15.75295 v 15.30686 l -1.91823,-0.0777 -1.91823,-0.0777 -0.13229,-15.34583 -0.1323,-15.34583 -3.175,0.13229 c -1.74625,0.0728 -5.61578,0.13229 -8.59895,0.13229 -2.983176,0 -6.852707,-0.0595 -8.598957,-0.13229 l -3.175,-0.13229 -0.132291,15.34583 -0.132292,15.34583 -1.918229,0.0777 -1.918229,0.0777 z"
         id="path268" />
      <path
         style="fill:#7f2c3f;stroke-width:0.264583"
         d="m 85.76534,153.78489 c -0.0021,-8.47658 -0.0945,-15.55424 -0.205036,-15.72811 -0.11054,-0.17388 -1.031451,-0.44803 -2.04647,-0.60923 -2.989995,-0.47486 -6.428298,-1.27063 -9.187672,-2.12643 l -2.579687,-0.80007 v -1.81896 -1.81896 l 1.377995,0.5236 c 9.793523,3.72124 29.40557,4.98013 44.26263,2.84118 4.22507,-0.60828 9.22389,-1.74826 11.8401,-2.70015 l 1.78594,-0.64979 v 1.80773 1.80774 l -2.18281,0.69189 c -2.71679,0.86115 -6.85089,1.83663 -9.45024,2.22987 -1.08667,0.1644 -2.06711,0.44264 -2.17876,0.61831 -0.11165,0.17567 -0.20483,7.2548 -0.20706,15.73138 l -0.004,15.41198 h -1.5875 -1.5875 v -15.03068 c 0,-11.6148 -0.0752,-15.13011 -0.33073,-15.4682 -0.30265,-0.40039 -0.83047,-0.41145 -6.2177,-0.13032 -4.4693,0.23324 -7.304671,0.23324 -11.773962,0 -5.387234,-0.28113 -5.915054,-0.27007 -6.217708,0.13032 -0.255566,0.33809 -0.330729,3.8534 -0.330729,15.4682 v 15.03068 h -1.5875 -1.5875 l -0.004,-15.41198 z"
         id="path266" />
    </g>
  </g>
</svg>
