<?xml version="1.0" encoding="UTF-8" standalone="no"?>
<!-- Created with Inkscape (http://www.inkscape.org/) -->

<svg
   width="120.88149mm"
   height="148.14661mm"
   viewBox="0 0 120.88149 148.14661"
   version="1.1"
   id="svg2289"
   inkscape:version="1.1.2 (b8e25be8, 2022-02-05)"
   sodipodi:docname="teachers.svg"
   xmlns:inkscape="http://www.inkscape.org/namespaces/inkscape"
   xmlns:sodipodi="http://sodipodi.sourceforge.net/DTD/sodipodi-0.dtd"
   xmlns="http://www.w3.org/2000/svg"
   xmlns:svg="http://www.w3.org/2000/svg">
  <sodipodi:namedview
     id="namedview2291"
     pagecolor="#ffffff"
     bordercolor="#666666"
     borderopacity="1.0"
     inkscape:pageshadow="2"
     inkscape:pageopacity="0.0"
     inkscape:pagecheckerboard="true"
     inkscape:document-units="mm"
     showgrid="false"
     fit-margin-top="0"
     fit-margin-left="0"
     fit-margin-right="0"
     fit-margin-bottom="0"
     inkscape:zoom="0.70616016"
     inkscape:cx="242.86275"
     inkscape:cy="215.24862"
     inkscape:window-width="1312"
     inkscape:window-height="762"
     inkscape:window-x="0"
     inkscape:window-y="25"
     inkscape:window-maximized="0"
     inkscape:current-layer="layer1" />
  <defs
     id="defs2286">
    <clipPath
       clipPathUnits="userSpaceOnUse"
       id="clipPath1908">
      <path
         d="m 118.462,347.524 h 76.891 v -74.752 h -76.891 z"
         id="path1906" />
    </clipPath>
    <clipPath
       clipPathUnits="userSpaceOnUse"
       id="clipPath1176">
      <path
         d="m 591.661,394.604 h 23.252 v -26.888 h -23.252 z"
         id="path1174" />
    </clipPath>
    <clipPath
       clipPathUnits="userSpaceOnUse"
       id="clipPath1264">
      <path
         d="m 648.627,313.224 h 24.517 v -21.135 h -24.517 z"
         id="path1262" />
    </clipPath>
    <clipPath
       clipPathUnits="userSpaceOnUse"
       id="clipPath1292">
      <path
         d="m 677.93,264.576 10.635,-0.803 7.725,102.375 -10.635,0.803 z"
         id="path1290" />
    </clipPath>
    <clipPath
       clipPathUnits="userSpaceOnUse"
       id="clipPath1388">
      <path
         d="m 572.98,237.616 h 39.077 V 149.702 H 572.98 Z"
         id="path1386" />
    </clipPath>
    <clipPath
       clipPathUnits="userSpaceOnUse"
       id="clipPath1416">
      <path
         d="M 619.774,243.614 H 649.14 V 149.957 H 619.774 Z"
         id="path1414" />
    </clipPath>
    <clipPath
       clipPathUnits="userSpaceOnUse"
       id="clipPath1448">
      <path
         d="m 579.34,331.354 h 61.096 V 300.376 H 579.34 Z"
         id="path1446" />
    </clipPath>
    <clipPath
       clipPathUnits="userSpaceOnUse"
       id="clipPath1480">
      <path
         d="m 575.695,298.097 h 18.397 v -16.725 h -18.397 z"
         id="path1478" />
    </clipPath>
  </defs>
  <g
     inkscape:label="Layer 1"
     inkscape:groupmode="layer"
     id="layer1"
     transform="translate(-31.072515,-59.026696)">
    <g
       id="g1786"
       transform="matrix(0.35277777,0,0,-0.35277777,137.67384,74.695672)">
      <path
         d="M 0,0 C 0,0 -5.215,-8.819 -1.25,-11.75 4.5,-16 2.5,-19.5 -1,-22.5 c 0,0 3.75,4 7.25,0.75 3.5,-3.25 -2.25,-7 -2.25,-7 0,0 4,4 6.75,-1 2.75,-5 -5,-6.25 -5,-6.25 0,0 10.5,-3 3.25,-11.25 -7.25,-8.25 -45.75,3 -45.75,3 l 3.25,31.5 c 0,0 26,23 33.5,12.75"
         style="fill:#142230;fill-opacity:1;fill-rule:nonzero;stroke:none"
         id="path1788" />
    </g>
    <g
       id="g1790"
       transform="matrix(0.35277777,0,0,-0.35277777,116.83706,74.10364)">
      <path
         d="m 0,0 c 0,0 3.771,-9.527 -0.604,-11.801 -6.344,-3.298 -4.917,-7.068 -1.929,-10.578 0,0 -3.078,4.537 -7.044,1.875 -3.965,-2.663 1.127,-7.266 1.127,-7.266 0,0 -3.324,4.577 -6.823,0.069 -3.498,-4.508 3.96,-6.956 3.96,-6.956 0,0 -10.84,-1.32 -4.97,-10.603 5.869,-9.282 45.656,-4.196 45.656,-4.196 l 1.719,31.621 C 31.092,-17.835 9.012,8.95 0,0"
         style="fill:#142230;fill-opacity:1;fill-rule:nonzero;stroke:none"
         id="path1792" />
    </g>
    <g
       id="g1794"
       transform="matrix(0.35277777,0,0,-0.35277777,115.79714,64.635296)">
      <path
         d="m 0,0 c 0,0 -6.796,-19.902 2.155,-31.147 8.952,-11.246 12.221,18.899 12.221,18.899 z"
         style="fill:#142230;fill-opacity:1;fill-rule:nonzero;stroke:none"
         id="path1796" />
    </g>
    <g
       id="g1798"
       transform="matrix(0.35277777,0,0,-0.35277777,129.52086,87.559148)">
      <path
         d="m 0,0 c -1.342,1.759 4.811,24.085 4.811,24.085 l -22.384,-0.154 c 0,0 -2.334,-23.657 -5.246,-23.792 -1.195,-0.056 -12.251,-1.653 -17.269,-3.544 1.195,-5.777 12.305,-11.565 14.311,-17.095 14.985,0.071 28.919,2.435 38.095,15.935 C 7.1,-3.035 0.775,-1.015 0,0"
         style="fill:#aa534f;fill-opacity:1;fill-rule:nonzero;stroke:none"
         id="path1800" />
    </g>
    <g
       id="g1802"
       transform="matrix(0.35277777,0,0,-0.35277777,122.28737,86.231046)">
      <path
         d="m 0,0 c 2.004,5.051 2.932,20.167 2.932,20.167 l 22.383,0.153 c 0,0 -3.409,-12.373 -4.598,-19.422 C 13.984,-0.605 6.425,-0.423 0,0"
         style="fill:#863f38;fill-opacity:1;fill-rule:nonzero;stroke:none"
         id="path1804" />
    </g>
    <g
       id="g1806"
       transform="matrix(0.35277777,0,0,-0.35277777,133.95263,66.828974)">
      <path
         d="M 0,0 C 0,0 -10.256,14.93 -24.509,11.967 -42.604,8.206 -46.365,-4.997 -49.46,-19.905 -52.555,-34.812 -48.116,-48.733 -33.967,-51.261 -21.675,-53.458 0.064,-52.544 0,0"
         style="fill:#aa534f;fill-opacity:1;fill-rule:nonzero;stroke:none"
         id="path1808" />
    </g>
    <g
       id="g1810"
       transform="matrix(0.35277777,0,0,-0.35277777,133.58229,72.71045)">
      <path
         d="M 0,0 C 0,0 1.173,2.647 5.394,-0.569 10.748,-4.648 4.501,-18.225 -2.109,-16.441 -8.72,-14.658 0,0 0,0"
         style="fill:#aa534f;fill-opacity:1;fill-rule:nonzero;stroke:none"
         id="path1812" />
    </g>
    <g
       id="g1814"
       transform="matrix(0.35277777,0,0,-0.35277777,128.40894,63.080358)">
      <path
         d="m 0,0 c 0,0 -7.27,-17.523 7.892,-27.878 0,0 -1.711,-9.608 2.521,-10.966 0,0 -1.039,9.318 4.252,11.546 5.291,2.228 9.075,-5.94 6.213,-11.153 0,0 15.474,10.866 9.527,29.976 C 24.008,12.083 1.805,11.042 0,0"
         style="fill:#142230;fill-opacity:1;fill-rule:nonzero;stroke:none"
         id="path1816" />
    </g>
    <g
       id="g1818"
       transform="matrix(0.35277777,0,0,-0.35277777,130.3077,62.282974)">
      <path
         d="m 0,0 c 0,0 -6.273,12.685 -23.354,8.314 -17.083,-4.37 -19.729,-15.177 -19.371,-29.412 0.358,-14.235 8.017,4.179 8.017,4.179 0,0 8.879,18.781 30.079,7.277 C 15.464,-20.546 0,0 0,0"
         style="fill:#142230;fill-opacity:1;fill-rule:nonzero;stroke:none"
         id="path1820" />
    </g>
    <g
       id="g1822"
       transform="matrix(0.35277777,0,0,-0.35277777,136.52731,75.930394)">
      <path
         d="M 0,0 -0.25,3.5 6,4.5 V 1 Z"
         style="fill:#ff6a59;fill-opacity:1;fill-rule:nonzero;stroke:none"
         id="path1824" />
    </g>
    <g
       id="g1826"
       transform="matrix(0.35277777,0,0,-0.35277777,124.61175,71.152901)">
      <path
         d="M 0,0 C 0,0 0.144,0.251 0.47,0.634 0.629,0.831 0.839,1.049 1.091,1.296 1.353,1.524 1.638,1.812 1.997,2.052 2.342,2.316 2.734,2.583 3.18,2.813 3.609,3.075 4.106,3.272 4.617,3.484 5.149,3.627 5.683,3.872 6.27,3.939 6.56,3.987 6.853,4.035 7.147,4.083 L 8.045,4.12 c 0.601,0.038 1.198,-0.06 1.783,-0.135 0.588,-0.059 1.13,-0.301 1.667,-0.439 0.532,-0.16 0.997,-0.448 1.451,-0.662 0.466,-0.194 0.821,-0.532 1.178,-0.776 0.348,-0.259 0.67,-0.484 0.902,-0.756 0.248,-0.248 0.449,-0.481 0.614,-0.667 0.328,-0.377 0.497,-0.603 0.497,-0.603 0,0 -0.28,0.094 -0.736,0.275 -0.226,0.094 -0.502,0.201 -0.8,0.341 C 14.309,0.851 13.934,0.936 13.563,1.08 13.177,1.193 12.797,1.393 12.354,1.482 11.916,1.578 11.474,1.728 11.006,1.818 10.532,1.88 10.056,1.998 9.562,2.024 9.068,2.041 8.573,2.129 8.071,2.081 L 7.322,2.07 6.578,1.988 C 6.082,1.96 5.602,1.834 5.125,1.767 4.669,1.622 4.193,1.568 3.771,1.417 3.34,1.287 2.928,1.163 2.551,1.026 1.796,0.759 1.157,0.505 0.711,0.311 0.259,0.125 0,0 0,0"
         style="fill:#142230;fill-opacity:1;fill-rule:nonzero;stroke:none"
         id="path1828" />
    </g>
    <g
       id="g1830"
       transform="matrix(0.35277777,0,0,-0.35277777,117.54914,70.772924)">
      <path
         d="M 0,0 C 0,0 0.086,0.219 0.31,0.562 0.529,0.906 0.888,1.371 1.414,1.842 1.679,2.075 1.973,2.331 2.326,2.543 2.663,2.783 3.068,2.958 3.485,3.152 3.698,3.239 3.927,3.3 4.155,3.371 4.383,3.448 4.619,3.508 4.867,3.53 5.112,3.562 5.36,3.601 5.611,3.624 L 6.371,3.596 C 6.883,3.597 7.37,3.419 7.852,3.307 8.32,3.15 8.748,2.913 9.162,2.711 9.539,2.448 9.889,2.177 10.21,1.919 c 0.307,-0.273 0.54,-0.587 0.77,-0.853 0.236,-0.26 0.421,-0.521 0.549,-0.779 0.144,-0.244 0.251,-0.469 0.341,-0.649 0.176,-0.365 0.256,-0.579 0.256,-0.579 0,0 -0.216,0.108 -0.559,0.309 -0.169,0.102 -0.376,0.221 -0.593,0.37 -0.213,0.157 -0.48,0.293 -0.76,0.443 C 9.931,0.324 9.646,0.506 9.334,0.658 9.011,0.79 8.683,0.935 8.355,1.092 8.003,1.182 7.659,1.313 7.304,1.406 6.938,1.437 6.588,1.586 6.215,1.563 L 5.665,1.604 C 5.48,1.584 5.296,1.58 5.112,1.57 4.743,1.573 4.381,1.467 4.02,1.43 3.668,1.333 3.309,1.281 2.981,1.162 2.645,1.069 2.327,0.958 2.028,0.852 1.441,0.626 0.93,0.419 0.574,0.257 0.212,0.103 0,0 0,0"
         style="fill:#142230;fill-opacity:1;fill-rule:nonzero;stroke:none"
         id="path1832" />
    </g>
    <g
       id="g1834"
       transform="matrix(0.35277777,0,0,-0.35277777,122.37659,72.402792)">
      <path
         d="m 0,0 c -0.065,-1.116 -0.26,-2.205 -0.519,-3.268 -0.252,-1.067 -0.581,-2.11 -0.954,-3.136 -0.369,-1.028 -0.796,-2.035 -1.281,-3.015 -0.236,-0.493 -0.481,-0.982 -0.767,-1.452 -0.28,-0.471 -0.542,-0.952 -0.836,-1.414 l -0.226,0.999 c 0.703,-0.614 1.394,-1.245 2.067,-1.9 0.666,-0.665 1.332,-1.329 1.941,-2.07 -0.884,0.372 -1.711,0.82 -2.538,1.268 -0.821,0.458 -1.622,0.94 -2.412,1.438 l -0.496,0.313 0.27,0.687 c 0.393,0.999 0.842,1.961 1.261,2.944 0.215,0.488 0.44,0.972 0.67,1.453 0.22,0.486 0.439,0.974 0.683,1.45 0.25,0.475 0.463,0.966 0.71,1.444 0.259,0.473 0.49,0.957 0.751,1.432 C -1.156,-1.876 -0.624,-0.931 0,0"
         style="fill:#7f3b37;fill-opacity:1;fill-rule:nonzero;stroke:none"
         id="path1836" />
    </g>
    <g
       id="g1838"
       transform="matrix(0.35277777,0,0,-0.35277777,133.37108,77.601079)">
      <path
         d="M 0,0 C 0.338,0.303 0.655,0.62 0.932,0.959 1.209,1.298 1.425,1.679 1.545,2.047 1.6,2.231 1.634,2.418 1.604,2.586 1.608,2.673 1.581,2.753 1.549,2.831 1.527,2.91 1.503,2.988 1.444,3.058 1.389,3.127 1.366,3.207 1.293,3.269 L 1.094,3.46 C 1.039,3.53 0.935,3.573 0.859,3.631 L 0.618,3.798 0.415,3.939 0.406,4.183 c -0.041,1.084 -0.002,2.146 0.135,3.223 0.061,0.539 0.168,1.074 0.31,1.612 0.145,0.535 0.327,1.08 0.673,1.597 0.174,0.255 0.405,0.515 0.734,0.695 0.327,0.188 0.756,0.219 1.089,0.119 0.364,-0.109 0.549,-0.244 0.8,-0.382 0.267,-0.16 0.495,-0.353 0.697,-0.563 C 5.04,10.263 5.211,10.025 5.342,9.765 5.46,9.5 5.551,9.226 5.589,8.946 5.677,8.393 5.629,7.833 5.439,7.334 5.464,7.863 5.4,8.386 5.219,8.849 5.135,9.083 5.002,9.291 4.869,9.485 4.729,9.679 4.563,9.845 4.383,9.995 4.19,10.136 3.996,10.254 3.801,10.35 3.584,10.444 3.303,10.571 3.154,10.584 2.817,10.627 2.593,10.466 2.357,10.08 1.93,9.305 1.743,8.262 1.598,7.265 1.461,6.255 1.377,5.212 1.331,4.192 L 1.119,4.577 1.415,4.337 C 1.509,4.249 1.614,4.189 1.696,4.077 L 1.948,3.769 C 2.033,3.67 2.083,3.527 2.148,3.408 2.218,3.289 2.252,3.151 2.276,3.009 2.313,2.87 2.326,2.731 2.306,2.591 2.301,2.31 2.208,2.05 2.098,1.822 1.875,1.358 1.522,1.019 1.166,0.725 0.806,0.431 0.416,0.186 0,0"
         style="fill:#7f3b37;fill-opacity:1;fill-rule:nonzero;stroke:none"
         id="path1840" />
    </g>
    <g
       id="g1842"
       transform="matrix(0.35277777,0,0,-0.35277777,125.09752,75.046721)">
      <path
         d="M 0,0 C 0,0 -0.004,0.256 0.037,0.704 0.091,1.148 0.145,1.793 0.35,2.549 0.547,3.303 0.87,4.188 1.51,5.022 1.834,5.431 2.255,5.828 2.782,6.09 3.056,6.234 3.295,6.311 3.654,6.394 3.924,6.419 4.106,6.496 4.45,6.48 5.108,6.5 5.675,6.285 6.197,5.991 6.704,5.67 7.068,5.222 7.353,4.781 7.9,3.878 8.097,2.949 8.192,2.173 8.288,1.391 8.24,0.74 8.199,0.292 8.153,-0.156 8.089,-0.405 8.089,-0.405 c 0,0 -0.039,0.251 -0.108,0.691 C 7.926,0.723 7.77,1.337 7.562,2.042 7.456,2.394 7.317,2.765 7.153,3.14 6.991,3.518 6.772,3.883 6.533,4.23 6.281,4.571 5.969,4.852 5.632,5.067 5.29,5.247 4.869,5.385 4.508,5.36 4.345,5.4 4.03,5.317 3.8,5.302 3.672,5.268 3.422,5.212 3.257,5.119 2.893,4.941 2.544,4.699 2.259,4.382 1.683,3.754 1.268,2.998 0.953,2.331 0.643,1.658 0.395,1.074 0.249,0.656 0.09,0.239 0,0 0,0"
         style="fill:#142230;fill-opacity:1;fill-rule:nonzero;stroke:none"
         id="path1844" />
    </g>
    <g
       id="g1846"
       transform="matrix(0.35277777,0,0,-0.35277777,117.83958,74.620918)">
      <path
         d="M 0,0 C 0,0 -0.004,0.256 0.038,0.704 0.091,1.148 0.145,1.793 0.35,2.549 0.547,3.303 0.87,4.189 1.51,5.022 1.834,5.431 2.255,5.828 2.782,6.091 3.056,6.235 3.295,6.311 3.654,6.394 3.924,6.42 4.106,6.496 4.45,6.48 5.109,6.501 5.675,6.285 6.198,5.991 6.704,5.67 7.068,5.222 7.353,4.781 7.901,3.879 8.097,2.949 8.193,2.173 8.289,1.392 8.24,0.74 8.2,0.293 8.153,-0.156 8.089,-0.405 8.089,-0.405 c 0,0 -0.039,0.251 -0.108,0.692 C 7.926,0.723 7.771,1.337 7.562,2.042 7.456,2.394 7.317,2.765 7.154,3.141 6.991,3.518 6.773,3.884 6.533,4.231 6.282,4.571 5.969,4.852 5.632,5.067 5.29,5.247 4.87,5.386 4.508,5.361 4.345,5.4 4.031,5.318 3.8,5.303 3.673,5.268 3.422,5.212 3.257,5.119 2.893,4.941 2.544,4.699 2.259,4.383 1.683,3.754 1.268,2.998 0.953,2.331 0.643,1.659 0.395,1.074 0.25,0.656 0.091,0.239 0,0 0,0"
         style="fill:#142230;fill-opacity:1;fill-rule:nonzero;stroke:none"
         id="path1848" />
    </g>
    <g
       id="g1850"
       transform="matrix(0.35277777,0,0,-0.35277777,126.18514,79.248374)">
      <path
         d="M 0,0 C 0,0 -9.414,-7.692 -18.556,0.659"
         style="fill:#ffffff;fill-opacity:1;fill-rule:nonzero;stroke:none"
         id="path1852" />
    </g>
    <g
       id="g1854"
       transform="matrix(0.35277777,0,0,-0.35277777,110.86273,179.11789)">
      <path
         d="m 0,0 c 0,0 -15,-67 -16,-68.5 -1,-1.5 -71,-21.5 -11.5,6 l 3.5,44 z"
         style="fill:#aa534f;fill-opacity:1;fill-rule:nonzero;stroke:none"
         id="path1856" />
    </g>
    <g
       id="g1858"
       transform="matrix(0.35277777,0,0,-0.35277777,106.39649,198.66294)">
      <path
         d="m 0,0 c 4.71,19.896 12.66,55.403 12.66,55.403 l -24,-18.5 -2.834,-35.631 C -9.865,-0.102 -4.755,-0.264 0,0"
         style="fill:#863f38;fill-opacity:1;fill-rule:nonzero;stroke:none"
         id="path1860" />
    </g>
    <g
       id="g1862"
       transform="matrix(0.35277777,0,0,-0.35277777,97.401542,202.94866)">
      <path
         d="m 0,0 c 0,0 -4.301,-4.227 3.485,-3.337 7.786,0.89 19.723,5.71 19.723,5.71 l -0.889,-3.708 c 0,0 -21.355,-7.562 -32.626,-8.749 C -21.577,-11.271 -8.083,-3.634 0,0"
         style="fill:#ffffff;fill-opacity:1;fill-rule:nonzero;stroke:none"
         id="path1864" />
    </g>
    <g
       id="g1866"
       transform="matrix(0.35277777,0,0,-0.35277777,93.69667,206.19083)">
      <path
         d="m 0,0 c -2.183,-0.232 -3.455,-0.137 -4.032,0.195 -0.403,-0.966 0.696,-1.461 4.227,-1.089 11.271,1.187 32.626,8.749 32.626,8.749 l 0.262,1.094 C 30.422,8.009 10.741,1.145 0,0"
         style="fill:#352836;fill-opacity:1;fill-rule:nonzero;stroke:none"
         id="path1868" />
    </g>
    <g
       id="g1870"
       transform="matrix(0.35277777,0,0,-0.35277777,125.59085,178.93117)">
      <path
         d="m 0,0 c 0,0 11.838,-67.631 12.767,-69.176 0.928,-1.545 69.913,-24.808 11.769,5.453 l -1.431,44.117 z"
         style="fill:#aa534f;fill-opacity:1;fill-rule:nonzero;stroke:none"
         id="path1872" />
    </g>
    <g
       id="g1874"
       transform="matrix(0.35277777,0,0,-0.35277777,129.13464,198.66432)">
      <path
         d="M 0,0 C -3.771,20.094 -10.045,55.937 -10.045,55.937 L 13.06,36.33 14.218,0.605 C 9.849,-0.564 4.737,-0.486 0,0"
         style="fill:#863f38;fill-opacity:1;fill-rule:nonzero;stroke:none"
         id="path1876" />
    </g>
    <g
       id="g1878"
       transform="matrix(0.35277777,0,0,-0.35277777,137.9186,203.36759)">
      <path
         d="m 0,0 c 0,0 4.098,-4.424 -3.638,-3.17 -7.735,1.255 -19.434,6.629 -19.434,6.629 l 0.715,-3.745 c 0,0 20.977,-8.557 32.179,-10.271 C 21.024,-12.271 7.903,-4.009 0,0"
         style="fill:#ffffff;fill-opacity:1;fill-rule:nonzero;stroke:none"
         id="path1880" />
    </g>
    <g
       id="g1882"
       transform="matrix(0.35277777,0,0,-0.35277777,141.46722,206.77994)">
      <path
         d="M 0,0 C 2.169,-0.335 3.445,-0.299 4.037,0.006 4.394,-0.979 3.273,-1.421 -0.237,-0.884 -11.439,0.83 -32.416,9.387 -32.416,9.387 l -0.211,1.105 C -30.013,9.428 -10.676,1.646 0,0"
         style="fill:#352836;fill-opacity:1;fill-rule:nonzero;stroke:none"
         id="path1884" />
    </g>
    <g
       id="g1886"
       transform="matrix(0.35277777,0,0,-0.35277777,133.68788,120.35196)">
      <path
         d="M 0,0 C -9.333,-1.891 -18.558,-1.892 -27.994,-2.101 -41.021,-2.389 -50.162,0.147 -63.035,4.254 -89.701,-57.08 -93.772,-202.009 -93.449,-215.6 c 0,0 15.334,-5.307 19.248,-1.481 1.647,11.895 34.94,154.201 35.833,160.668 l 15.041,-115.621 c 0,0 4.234,-42.448 4.959,-46.379 12.859,-3.825 22.602,-0.82 22.602,-0.82 0,0 6.707,112.894 10.522,152.535 2.737,28.437 -4.39,55.284 -8.638,68.192 C 4.092,0.931 2.056,0.417 0,0"
         style="fill:#352836;fill-opacity:1;fill-rule:nonzero;stroke:none"
         id="path1888" />
    </g>
    <g
       id="g1890"
       transform="matrix(0.35277777,0,0,-0.35277777,128.50162,124.8485)">
      <path
         d="m 0,0 c 8.13,0.092 16.307,0.713 24.409,1.888 -1.243,4.882 -2.51,9.07 -3.59,12.352 -2.026,-0.563 -4.062,-1.077 -6.118,-1.494 -9.333,-1.891 -18.558,-1.892 -27.994,-2.1 -13.027,-0.289 -22.168,2.248 -35.04,6.354 -0.98,-2.252 -1.928,-4.625 -2.848,-7.105 C -35.411,2.407 -17.316,-0.195 0,0"
         style="fill:#221a24;fill-opacity:1;fill-rule:nonzero;stroke:none"
         id="path1892" />
    </g>
    <g
       id="g1894"
       transform="matrix(0.35277777,0,0,-0.35277777,120.09489,140.08151)">
      <path
         d="m 0,0 c -7.041,3.729 -16.54,7.967 -22.76,13.427 -5.322,4.671 -8.337,6.975 -12.629,12.554 -16.989,-70.398 -19.802,-174.178 -19.528,-185.655 0,0 15.334,-5.306 19.247,-1.48 1.607,11.606 33.334,147.139 35.707,159.93 C 0.024,-0.815 0.01,-0.407 0,0"
         style="fill:#221a24;fill-opacity:1;fill-rule:nonzero;stroke:none"
         id="path1896" />
    </g>
    <g
       id="g1898"
       transform="matrix(0.35277777,0,0,-0.35277777,112.57134,96.473666)">
      <path
         d="m 0,0 1.022,-0.269 c 0.13,2.895 0.305,5.266 0.536,6.881 1.787,12.479 5.479,17.822 5.479,17.822 l 12.71,1.53 c 0,0 -2.963,-10.296 10.563,-11.84 16.232,-1.853 20.397,10.581 20.397,10.581 l 11,-2.176 11.442,-24.974 c 0,0 -0.562,-15.95 -15.271,-33.395 0,0 7.671,-16.006 5.243,-30.866 -2.429,-14.859 -64.735,1.884 -64.735,1.884 0,0 2.359,23.458 2.32,43.08 C -8.87,-8.403 0,0 0,0"
         style="fill:#ffeeef;fill-opacity:1;fill-rule:nonzero;stroke:none"
         id="path1900" />
    </g>
    <g
       id="g1902"
       transform="matrix(0.35277777,0,0,-0.35277777,69.460731,218.43321)">
      <g
         id="g1904" />
      <g
         id="g1916">
        <g
           clip-path="url(#clipPath1908)"
           opacity="0.100006"
           id="g1914">
          <g
             transform="translate(143.693,335.5021)"
             id="g1912">
            <path
               d="m 0,0 c 10.684,-1.887 21.653,0.43 31.939,3.447 6.14,1.801 12.947,4.142 17.77,8.575 L 51.66,7.765 c 0,0 -0.562,-15.95 -15.271,-33.395 0,0 7.67,-16.006 5.242,-30.866 -2.428,-14.859 -63.89,1.509 -63.89,1.509 0,0 1.514,23.833 1.475,43.455 C -28.318,-1.037 -24.435,6.4 -22.436,9.095 -15.413,4.914 -7.695,1.359 0,0"
               style="fill:#142230;fill-opacity:1;fill-rule:nonzero;stroke:none"
               id="path1910" />
          </g>
        </g>
      </g>
    </g>
    <g
       id="g1918"
       transform="matrix(0.35277777,0,0,-0.35277777,131.6437,87.824049)">
      <path
         d="m 0,0 c 0,0 -27.56,-63.666 -23.938,-123.031 0,0 26.233,-2.388 46.346,6.314 L 10.64,-59.324 c 0,0 8.97,19.622 10.052,23.392 C 24.03,-24.308 29.51,-8.45 20.194,-5.333 10.878,-2.217 0,0 0,0"
         style="fill:#ff6a59;fill-opacity:1;fill-rule:nonzero;stroke:none"
         id="path1920" />
    </g>
    <g
       id="g1922"
       transform="matrix(0.35277777,0,0,-0.35277777,144.49201,108.3446)">
      <path
         d="m 0,0 -1.82,-1.302 -16.36,-28.716 c 0,0 -0.969,6.414 -2.547,6.365 -1.577,-0.049 -25.369,-7.58 -0.346,-2.571 0,0 -33.124,-10.726 0.322,-3.447 0,0 -28.51,-9.514 -0.45,-3.343 0,0 -25.32,-9.158 -0.569,-2.28 0,0 0.232,-6.053 5.618,-4.945 5.385,1.107 34.579,32.046 32.482,36.493 C 14.233,0.702 0,0 0,0"
         style="fill:#aa534f;fill-opacity:1;fill-rule:nonzero;stroke:none"
         id="path1924" />
    </g>
    <g
       id="g1926"
       transform="matrix(0.35277777,0,0,-0.35277777,131.6437,87.824049)">
      <path
         d="m 0,0 c 0,0 24.881,-2.634 31.972,-9.112 7.091,-6.478 26.892,-48.365 25.534,-53.787 -1.358,-5.423 -30.198,-32.594 -30.198,-32.594 l -9.324,10.634 15.435,29.052 -16.489,23.63 z"
         style="fill:#ff6a59;fill-opacity:1;fill-rule:nonzero;stroke:none"
         id="path1928" />
    </g>
    <g
       id="g1930"
       transform="matrix(0.35277777,0,0,-0.35277777,118.90462,87.106288)">
      <path
         d="m 0,0 c 0,0 -12.298,-70.346 -9.895,-120.277 0,0 -19.869,2.64 -25.491,13.698 0,0 14.086,36.49 15.286,54.784 0,0 -9.744,9.324 -1.782,28.845 9.528,23.362 7.34,20.229 7.34,20.229 z"
         style="fill:#ff6a59;fill-opacity:1;fill-rule:nonzero;stroke:none"
         id="path1932" />
    </g>
    <g
       id="g1934"
       transform="matrix(0.35277777,0,0,-0.35277777,103.6716,105.66674)">
      <path
         d="m 0,0 1.635,-1.529 12.468,-30.606 c 0,0 1.798,6.232 3.356,5.977 1.558,-0.255 24.162,-10.829 0.007,-2.594 0,0 31.439,-14.961 -0.769,-3.376 0,0 27.023,-13.157 0.01,-3.373 0,0 23.907,-12.387 0.266,-2.335 0,0 -1.021,-5.971 -6.216,-4.169 -5.194,1.802 -30.096,36.289 -27.436,40.424 C -14.019,2.555 0,0 0,0"
         style="fill:#aa534f;fill-opacity:1;fill-rule:nonzero;stroke:none"
         id="path1936" />
    </g>
    <g
       id="g1938"
       transform="matrix(0.35277777,0,0,-0.35277777,118.90462,87.106288)">
      <path
         d="m 0,0 c 0,0 -19.006,1.33 -27.187,-3.702 -9.688,-5.959 -38.154,-45.293 -37.516,-50.846 0.638,-5.554 25.682,-36.259 25.682,-36.259 l 10.633,9.324 -11.508,30.819 19.435,21.274 z"
         style="fill:#ff6a59;fill-opacity:1;fill-rule:nonzero;stroke:none"
         id="path1940" />
    </g>
    <g
       id="g1154"
       transform="matrix(0.35277777,0,0,-0.35277777,51.636713,61.927863)">
      <path
         d="m 0,0 c 0,0 14.219,11.726 27.953,3.539 18.4,-10.97 15.568,-34.323 7.431,-38.923 C 27.245,-39.983 0,0 0,0"
         style="fill:#7f5e6a;fill-opacity:1;fill-rule:nonzero;stroke:none"
         id="path1156" />
    </g>
    <g
       id="g1158"
       transform="matrix(0.35277777,0,0,-0.35277777,52.385661,61.80298)">
      <path
         d="m 0,0 c 0,0 0.146,0.138 0.421,0.398 0.288,0.246 0.649,0.671 1.22,1.094 0.279,0.22 0.588,0.464 0.923,0.73 0.354,0.241 0.737,0.502 1.146,0.78 0.831,0.537 1.808,1.094 2.931,1.583 0.552,0.266 1.162,0.458 1.776,0.705 0.629,0.198 1.28,0.413 1.963,0.583 1.364,0.343 2.835,0.597 4.371,0.682 1.535,0.065 3.131,0.059 4.734,-0.157 1.599,-0.213 3.22,-0.52 4.786,-1.026 1.555,-0.523 3.083,-1.145 4.497,-1.932 1.409,-0.788 2.758,-1.643 3.94,-2.632 1.193,-0.972 2.255,-2.026 3.132,-3.13 0.91,-1.077 1.616,-2.212 2.235,-3.268 0.271,-0.55 0.558,-1.063 0.779,-1.575 0.201,-0.521 0.411,-1.006 0.572,-1.475 0.145,-0.473 0.282,-0.916 0.408,-1.325 0.107,-0.415 0.184,-0.801 0.264,-1.146 0.18,-0.685 0.196,-1.249 0.259,-1.621 0.049,-0.374 0.075,-0.574 0.075,-0.574 0,0 -0.046,0.196 -0.132,0.564 -0.098,0.366 -0.185,0.912 -0.407,1.579 -0.106,0.335 -0.21,0.709 -0.346,1.108 -0.154,0.392 -0.321,0.816 -0.5,1.269 -0.193,0.446 -0.435,0.905 -0.668,1.395 -0.251,0.481 -0.545,0.973 -0.834,1.492 -0.649,0.997 -1.382,2.062 -2.309,3.059 -0.894,1.026 -1.971,1.979 -3.12,2.909 -1.149,0.934 -2.462,1.736 -3.827,2.473 -1.37,0.736 -2.85,1.308 -4.35,1.792 -1.495,0.51 -3.048,0.827 -4.585,1.057 C 17.814,5.623 16.278,5.65 14.799,5.612 13.319,5.533 11.892,5.374 10.557,5.101 9.89,4.967 9.251,4.788 8.631,4.624 8.026,4.413 7.423,4.254 6.874,4.02 5.766,3.583 4.772,3.117 3.916,2.655 3.494,2.412 3.099,2.185 2.733,1.974 2.384,1.739 2.063,1.522 1.772,1.327 1.183,0.947 0.767,0.572 0.459,0.353 0.16,0.123 0,0 0,0"
         style="fill:#7f5e6a;fill-opacity:1;fill-rule:nonzero;stroke:none"
         id="path1160" />
    </g>
    <g
       id="g1162"
       transform="matrix(0.35277777,0,0,-0.35277777,65.741968,72.912552)">
      <path
         d="M 0,0 H -8.492"
         style="fill:none;stroke:#352836;stroke-width:1.061;stroke-linecap:round;stroke-linejoin:round;stroke-miterlimit:10;stroke-dasharray:none;stroke-opacity:1"
         id="path1164" />
    </g>
    <g
       id="g1166"
       transform="matrix(0.35277777,0,0,-0.35277777,59.109464,98.02317)">
      <path
         d="m 0,0 c -4.146,-0.154 -9.574,-1.101 -15.399,-2.182 -12.872,5.051 -25.688,10.23 -38.157,16.213 3.029,9.32 10.597,16.11 18.437,17.554 11.004,2.029 4.696,30.414 4.696,30.414 l 22.951,-8.933 c 0,0 -4.236,-9.968 -0.523,-17.59 3.714,-7.622 20.629,-0.19 26.199,-13.839 C 23.773,7.987 16.406,0.61 0,0"
         style="fill:#ffae9e;fill-opacity:1;fill-rule:nonzero;stroke:none"
         id="path1168" />
    </g>
    <g
       id="g1170"
       transform="matrix(0.35277777,0,0,-0.35277777,-160.60861,215.3718)">
      <g
         id="g1172" />
      <g
         id="g1184">
        <g
           clip-path="url(#clipPath1176)"
           opacity="0.5"
           id="g1182">
          <g
             transform="translate(614.9127,367.7165)"
             id="g1180">
            <path
               d="m 0,0 c -6.762,0.649 -13.023,3.259 -20.527,11.845 -0.262,6.631 -2.725,15.042 -2.725,15.042 L -0.771,15.914 c 0,0 -2.342,-8.17 0.771,-15.914"
               style="fill:#ce7c75;fill-opacity:1;fill-rule:nonzero;stroke:none"
               id="path1178" />
          </g>
        </g>
      </g>
    </g>
    <g
       id="g1186"
       transform="matrix(0.35277777,0,0,-0.35277777,54.632537,64.049892)">
      <path
         d="M 0,0 C 0,0 22.376,5.546 25.967,-22.852 29.536,-51.082 9.153,-64.576 -11.207,-50.324 -28.027,-38.549 -29.603,-0.248 0,0"
         style="fill:#ffae9e;fill-opacity:1;fill-rule:nonzero;stroke:none"
         id="path1188" />
    </g>
    <g
       id="g1190"
       transform="matrix(0.35277777,0,0,-0.35277777,47.143595,72.175317)">
      <path
         d="m 0,0 c 0,0 0.522,-9.433 4.086,-14.18 0,0 -9.355,-1.093 -10.652,5.517 C -7.864,-2.053 -5.133,0.651 0,0"
         style="fill:#ffae9e;fill-opacity:1;fill-rule:nonzero;stroke:none"
         id="path1192" />
    </g>
    <g
       id="g1194"
       transform="matrix(0.35277777,0,0,-0.35277777,46.768451,64.798839)">
      <path
         d="M 0,0 C 0,0 -7.01,18.264 -16.983,12.03 -33.968,1.416 -27.599,-13.8 -14.86,-12.03 -2.123,-10.261 0,0 0,0"
         style="fill:#7f5e6a;fill-opacity:1;fill-rule:nonzero;stroke:none"
         id="path1196" />
    </g>
    <g
       id="g1198"
       transform="matrix(0.35277777,0,0,-0.35277777,42.399721,67.170459)">
      <path
         d="m 0,0 c 0,0 6.723,16.984 18.045,18.753 11.323,1.769 33.969,-15.569 -0.707,-31.845 0,0 3.891,-4.6 1.061,-19.815 0,0 -2.831,19.107 -8.138,18.046 -5.308,-1.062 -4.913,-11.696 3.184,-13.092 0,0 0.711,-2.356 5.117,-8.964 0,0 -31.3,0.826 -18.562,36.917"
         style="fill:#7f5e6a;fill-opacity:1;fill-rule:nonzero;stroke:none"
         id="path1200" />
    </g>
    <g
       id="g1202"
       transform="matrix(0.35277777,0,0,-0.35277777,54.632537,64.049892)">
      <path
         d="M 0,0 C 0,0 0.292,-0.338 0.648,-1.041 0.815,-1.395 1.004,-1.834 1.159,-2.364 1.259,-2.624 1.303,-2.913 1.37,-3.216 1.438,-3.52 1.496,-3.843 1.505,-4.184 1.519,-4.524 1.572,-4.882 1.554,-5.25 1.527,-5.618 1.499,-5.999 1.471,-6.391 1.436,-6.783 1.32,-7.17 1.245,-7.577 1.2,-7.779 1.156,-7.983 1.111,-8.189 1.04,-8.387 0.968,-8.586 0.896,-8.787 c -0.149,-0.401 -0.3,-0.81 -0.453,-1.224 -0.204,-0.387 -0.411,-0.781 -0.62,-1.177 -0.385,-0.816 -0.966,-1.514 -1.469,-2.267 -0.512,-0.75 -1.178,-1.363 -1.75,-2.04 l -0.442,-0.492 -0.486,-0.436 c -0.322,-0.288 -0.641,-0.573 -0.954,-0.853 -0.314,-0.278 -0.622,-0.552 -0.924,-0.82 -0.324,-0.238 -0.643,-0.471 -0.951,-0.698 -0.622,-0.447 -1.209,-0.87 -1.752,-1.26 -0.543,-0.387 -1.092,-0.666 -1.556,-0.945 -0.468,-0.271 -0.876,-0.507 -1.213,-0.701 -0.673,-0.385 -1.064,-0.592 -1.064,-0.592 0,0 0.342,0.287 0.952,0.765 0.305,0.236 0.676,0.524 1.1,0.854 0.418,0.338 0.916,0.683 1.419,1.11 0.5,0.428 1.041,0.893 1.614,1.384 0.287,0.243 0.582,0.492 0.882,0.747 0.282,0.276 0.569,0.558 0.861,0.845 0.568,0.585 1.229,1.123 1.764,1.79 0.539,0.658 1.177,1.261 1.653,1.981 0.485,0.708 1.056,1.37 1.425,2.131 0.208,0.367 0.414,0.731 0.618,1.091 0.159,0.381 0.315,0.756 0.47,1.125 0.076,0.185 0.151,0.369 0.226,0.552 0.053,0.188 0.105,0.375 0.155,0.56 0.096,0.371 0.233,0.729 0.289,1.09 0.054,0.364 0.107,0.717 0.158,1.058 0.051,0.343 0.032,0.677 0.05,0.999 0.028,0.324 -0.006,0.629 -0.032,0.923 -0.024,0.293 -0.028,0.578 -0.09,0.834 C 0.697,-1.93 0.574,-1.484 0.458,-1.118 0.327,-0.761 0.232,-0.47 0.14,-0.287 0.057,-0.096 0,0 0,0"
         style="fill:#7f5e6a;fill-opacity:1;fill-rule:nonzero;stroke:none"
         id="path1204" />
    </g>
    <g
       id="g1206"
       transform="matrix(0.35277777,0,0,-0.35277777,53.152211,73.168527)">
      <path
         d="M 0,0 C 0.136,-1.941 0.855,-3.472 1.606,-3.419 2.358,-3.367 2.857,-1.75 2.722,0.19 2.585,2.131 1.866,3.662 1.115,3.61 0.363,3.557 -0.136,1.941 0,0"
         style="fill:#352836;fill-opacity:1;fill-rule:nonzero;stroke:none"
         id="path1208" />
    </g>
    <g
       id="g1210"
       transform="matrix(0.35277777,0,0,-0.35277777,60.425466,72.579424)">
      <path
         d="M 0,0 C 0.136,-1.941 0.854,-3.472 1.606,-3.419 2.357,-3.367 2.856,-1.75 2.721,0.19 2.585,2.131 1.866,3.662 1.114,3.609 0.363,3.557 -0.136,1.941 0,0"
         style="fill:#352836;fill-opacity:1;fill-rule:nonzero;stroke:none"
         id="path1212" />
    </g>
    <g
       id="g1214"
       transform="matrix(0.35277777,0,0,-0.35277777,59.556292,71.644774)">
      <path
         d="m 0,0 c 0.203,-0.998 0.372,-1.998 0.514,-3 0.139,-1.002 0.257,-2.006 0.357,-3.012 0.193,-2.01 0.336,-4.025 0.4,-6.046 l 0.01,-0.341 -0.303,-0.047 c -0.715,-0.111 -1.432,-0.214 -2.151,-0.301 -0.723,-0.071 -1.441,-0.165 -2.171,-0.204 0.687,0.249 1.385,0.444 2.077,0.661 0.697,0.201 1.396,0.387 2.097,0.565 l -0.293,-0.388 c -0.237,2.008 -0.396,4.021 -0.504,6.039 -0.05,1.009 -0.084,2.019 -0.095,3.031 C -0.07,-2.031 -0.053,-1.017 0,0"
         style="fill:#db7877;fill-opacity:1;fill-rule:nonzero;stroke:none"
         id="path1216" />
    </g>
    <g
       id="g1218"
       transform="matrix(0.35277777,0,0,-0.35277777,63.363117,69.761682)">
      <path
         d="M 0,0 C 0,0 -0.185,0.064 -0.508,0.177 -0.821,0.293 -1.273,0.432 -1.782,0.605 -2.047,0.668 -2.316,0.769 -2.609,0.828 -2.896,0.908 -3.197,0.969 -3.504,1.017 -3.808,1.087 -4.12,1.082 -4.428,1.124 -4.733,1.101 -5.046,1.148 -5.339,1.075 -5.645,1.065 -5.927,0.968 -6.214,0.89 -6.509,0.832 -6.758,0.651 -7.041,0.559 -7.305,0.423 -7.544,0.243 -7.798,0.105 -8.047,-0.043 -8.249,-0.246 -8.469,-0.397 -8.68,-0.56 -8.889,-0.706 -9.043,-0.868 c -0.159,-0.156 -0.316,-0.286 -0.443,-0.396 -0.26,-0.217 -0.427,-0.34 -0.427,-0.34 0,0 0.031,0.192 0.117,0.527 0.105,0.325 0.19,0.838 0.523,1.345 0.159,0.256 0.296,0.568 0.536,0.833 0.247,0.258 0.494,0.557 0.811,0.805 0.343,0.211 0.672,0.501 1.09,0.635 0.406,0.167 0.832,0.302 1.276,0.338 0.443,0.081 0.878,0.027 1.306,-0.003 0.411,-0.082 0.827,-0.154 1.185,-0.311 0.369,-0.133 0.703,-0.3 1,-0.485 C -1.761,1.915 -1.515,1.69 -1.275,1.513 -0.354,0.737 0,0 0,0"
         style="fill:#352836;fill-opacity:1;fill-rule:nonzero;stroke:none"
         id="path1220" />
    </g>
    <g
       id="g1222"
       transform="matrix(0.35277777,0,0,-0.35277777,56.244167,70.259487)">
      <path
         d="m 0,0 c 0,0 -0.216,0.141 -0.598,0.348 -0.182,0.113 -0.427,0.219 -0.679,0.365 -0.273,0.118 -0.558,0.278 -0.888,0.404 -0.321,0.145 -0.68,0.259 -1.048,0.385 -0.371,0.116 -0.77,0.2 -1.17,0.276 -0.201,0.026 -0.406,0.053 -0.613,0.08 C -5.204,1.871 -5.414,1.851 -5.622,1.867 -6.042,1.919 -6.461,1.78 -6.881,1.752 -7.29,1.626 -7.72,1.57 -8.113,1.394 -8.493,1.185 -8.931,1.116 -9.283,0.868 c -0.358,-0.229 -0.742,-0.397 -1.08,-0.612 -0.321,-0.241 -0.642,-0.453 -0.945,-0.65 -0.609,-0.389 -1.053,-0.814 -1.424,-1.053 -0.359,-0.256 -0.581,-0.396 -0.581,-0.396 0,0 0.099,0.232 0.303,0.628 0.104,0.196 0.228,0.439 0.388,0.705 0.154,0.273 0.329,0.582 0.589,0.866 0.243,0.3 0.512,0.626 0.815,0.955 0.317,0.315 0.697,0.613 1.09,0.918 0.189,0.163 0.407,0.295 0.641,0.416 0.226,0.13 0.461,0.255 0.702,0.371 0.48,0.235 1.034,0.356 1.559,0.52 0.559,0.033 1.113,0.161 1.662,0.084 0.552,-0.006 1.073,-0.15 1.567,-0.293 0.491,-0.143 0.938,-0.366 1.336,-0.59 C -2.26,2.511 -1.909,2.26 -1.613,1.999 -1.299,1.765 -1.068,1.479 -0.85,1.257 -0.645,1.015 -0.475,0.802 -0.353,0.611 -0.099,0.239 0,0 0,0"
         style="fill:#352836;fill-opacity:1;fill-rule:nonzero;stroke:none"
         id="path1224" />
    </g>
    <g
       id="g1226"
       transform="matrix(0.35277777,0,0,-0.35277777,47.103978,76.3327)">
      <path
         d="m 0,0 c -0.352,0.184 -0.665,0.448 -0.904,0.797 -0.116,0.178 -0.209,0.381 -0.25,0.608 -0.006,0.114 -0.038,0.234 -0.016,0.35 0.025,0.113 0.026,0.242 0.08,0.344 0.08,0.226 0.207,0.414 0.349,0.591 0.143,0.167 0.306,0.316 0.474,0.449 0.174,0.115 0.345,0.251 0.526,0.35 L 0.806,3.782 0.562,3.278 C 0.269,4.146 -0.057,5.021 -0.396,5.875 -0.742,6.728 -1.109,7.57 -1.553,8.342 -1.772,8.724 -2.031,9.082 -2.311,9.352 -2.607,9.612 -2.862,9.719 -3.176,9.542 -3.333,9.459 -3.489,9.313 -3.626,9.148 -3.77,8.986 -3.9,8.802 -4.024,8.609 -4.271,8.221 -4.47,7.796 -4.688,7.374 c 0.07,0.47 0.181,0.933 0.345,1.39 0.085,0.227 0.172,0.458 0.304,0.677 0.129,0.218 0.285,0.435 0.518,0.616 0.218,0.184 0.561,0.315 0.887,0.262 C -2.3,10.29 -2.04,10.131 -1.81,9.976 -1.365,9.646 -1.063,9.234 -0.779,8.828 -0.235,8.002 0.168,7.125 0.514,6.234 0.861,5.342 1.143,4.439 1.375,3.506 L 1.467,3.138 1.131,3.002 0.62,2.795 C 0.449,2.726 0.303,2.631 0.14,2.551 0.056,2.512 -0.002,2.452 -0.075,2.404 -0.142,2.352 -0.228,2.311 -0.281,2.251 -0.403,2.139 -0.518,2.021 -0.593,1.884 -0.646,1.82 -0.647,1.743 -0.682,1.672 -0.72,1.6 -0.707,1.52 -0.727,1.44 -0.734,1.278 -0.701,1.107 -0.639,0.937 -0.502,0.603 -0.272,0.282 0,0"
         style="fill:#db7877;fill-opacity:1;fill-rule:nonzero;stroke:none"
         id="path1228" />
    </g>
    <g
       id="g1230"
       transform="matrix(0.35277777,0,0,-0.35277777,55.38152,78.6545)">
      <path
         d="m 0,0 c 0,0 0.721,-0.362 1.798,-0.796 0.273,-0.1 0.561,-0.22 0.875,-0.323 0.306,-0.117 0.641,-0.204 0.98,-0.309 0.336,-0.113 0.701,-0.158 1.056,-0.259 0.364,-0.047 0.728,-0.146 1.1,-0.155 0.369,-0.036 0.739,-0.079 1.102,-0.054 0.183,0.002 0.363,0.004 0.542,0.006 0.177,0.02 0.353,0.04 0.525,0.059 0.349,0.025 0.677,0.099 0.993,0.172 0.319,0.057 0.615,0.139 0.882,0.241 0.266,0.1 0.532,0.158 0.748,0.253 0.217,0.097 0.407,0.181 0.563,0.25 0.326,0.132 0.513,0.207 0.513,0.207 0,0 -0.138,-0.142 -0.397,-0.383 -0.133,-0.118 -0.294,-0.262 -0.478,-0.427 -0.191,-0.16 -0.437,-0.294 -0.698,-0.456 C 9.97,-2.053 9.832,-2.136 9.688,-2.222 9.537,-2.291 9.374,-2.349 9.209,-2.415 8.879,-2.548 8.526,-2.694 8.139,-2.751 7.757,-2.839 7.358,-2.922 6.945,-2.92 6.533,-2.958 6.117,-2.929 5.701,-2.897 5.283,-2.872 4.883,-2.753 4.481,-2.686 4.091,-2.572 3.706,-2.459 3.352,-2.31 2.634,-2.031 2.014,-1.671 1.511,-1.331 0.502,-0.646 0,0 0,0"
         style="fill:#db7877;fill-opacity:1;fill-rule:nonzero;stroke:none"
         id="path1232" />
    </g>
    <g
       id="g1234"
       transform="matrix(0.35277777,0,0,-0.35277777,51.386947,73.411768)">
      <path
         d="m 0,0 c 0,-4.69 3.803,-8.492 8.492,-8.492 4.691,0 8.492,3.802 8.492,8.492 0,4.69 -3.801,8.492 -8.492,8.492 C 3.803,8.492 0,4.69 0,0 Z"
         style="fill:none;stroke:#352836;stroke-width:1.061;stroke-linecap:round;stroke-linejoin:round;stroke-miterlimit:10;stroke-dasharray:none;stroke-opacity:1"
         id="path1236" />
    </g>
    <g
       id="g1238"
       transform="matrix(0.35277777,0,0,-0.35277777,59.750249,72.912552)">
      <path
         d="m 0,0 c 0,-4.69 3.803,-8.492 8.492,-8.492 4.691,0 8.492,3.802 8.492,8.492 0,4.69 -3.801,8.492 -8.492,8.492 C 3.803,8.492 0,4.69 0,0 Z"
         style="fill:none;stroke:#352836;stroke-width:1.061;stroke-linecap:round;stroke-linejoin:round;stroke-miterlimit:10;stroke-dasharray:none;stroke-opacity:1"
         id="path1240" />
    </g>
    <g
       id="g1242"
       transform="matrix(0.35277777,0,0,-0.35277777,47.891872,73.037259)">
      <path
         d="M 0,0 9.907,-1.062"
         style="fill:none;stroke:#352836;stroke-width:1.061;stroke-linecap:round;stroke-linejoin:round;stroke-miterlimit:10;stroke-dasharray:none;stroke-opacity:1"
         id="path1244" />
    </g>
    <g
       id="g1246"
       transform="matrix(0.35277777,0,0,-0.35277777,57.37863,73.411768)">
      <path
         d="M 0,0 C 0,0 2.831,4.954 7.077,-1.416"
         style="fill:none;stroke:#352836;stroke-width:1.061;stroke-linecap:round;stroke-linejoin:round;stroke-miterlimit:10;stroke-dasharray:none;stroke-opacity:1"
         id="path1248" />
    </g>
    <g
       id="g1250"
       transform="matrix(0.35277777,0,0,-0.35277777,78.780246,103.85674)">
      <path
         d="m 0,0 c 0,0 6.884,18.24 3.058,1.507 0,0 25.852,11.227 7.435,0.377 0,0 24.611,10.506 0.678,-2.068 0,0 23.59,8.1 1.907,-2.569 0,0 22.026,6.883 -11.8,-7.777 C -17.363,-18.609 0,0 0,0"
         style="fill:#ffa393;fill-opacity:1;fill-rule:nonzero;stroke:none"
         id="path1252" />
    </g>
    <g
       id="g1254"
       transform="matrix(0.35277777,0,0,-0.35277777,78.966972,103.76995)">
      <path
         d="m 0,0 c -0.049,0.087 -0.062,0.173 -0.085,0.26 l -27.242,-7.904 -1.517,-1.316 c 0,0 -3.59,-12.269 -0.149,-15.029 2.676,-2.147 23.285,8.861 33.302,15.963 C 3.023,-5.276 1.496,-2.642 0,0"
         style="fill:#ffa393;fill-opacity:1;fill-rule:nonzero;stroke:none"
         id="path1256" />
    </g>
    <g
       id="g1258"
       transform="matrix(0.35277777,0,0,-0.35277777,-160.60861,215.3718)">
      <g
         id="g1260" />
      <g
         id="g1272">
        <g
           clip-path="url(#clipPath1264)"
           opacity="0.5"
           id="g1270">
          <g
             transform="translate(667.3502,313.2238)"
             id="g1268">
            <path
               d="m 0,0 -15.565,-4.516 -1.517,-1.316 c 0,0 -3.59,-12.269 -0.149,-15.03 1.926,-1.545 13.152,3.73 23.025,9.456 C 3.953,-7.56 2.029,-3.753 0,0"
               style="fill:#ce7c75;fill-opacity:1;fill-rule:nonzero;stroke:none"
               id="path1266" />
          </g>
        </g>
      </g>
    </g>
    <g
       id="g1274"
       transform="matrix(0.35277777,0,0,-0.35277777,45.605025,86.9222)">
      <path
         d="M 0,0 C 1.996,-4.151 11.011,-12.922 23.317,-11.164 36.181,-9.327 35.163,-1.071 35.424,2.063 37.25,2.116 39.192,2.136 39.402,2.134 67.817,1.836 66.15,-34.831 66.15,-34.831 l 2,-17 11.667,2.333 5,-17 -28.333,-10 -56.455,42.752 -20.879,15.248 C -18.516,-3.498 -8.329,-2.929 0,0"
         style="fill:#5997c0;fill-opacity:1;fill-rule:nonzero;stroke:none"
         id="path1276" />
    </g>
    <g
       id="g1278"
       transform="matrix(0.35277777,0,0,-0.35277777,45.18783,86.98009)">
      <path
         d="M 0,0 13.333,-18.667 23,-11 6.333,3.333 Z"
         style="fill:#65b2db;fill-opacity:1;fill-rule:nonzero;stroke:none"
         id="path1280" />
    </g>
    <g
       id="g1282"
       transform="matrix(0.35277777,0,0,-0.35277777,58.005305,85.56898)">
      <path
         d="m 0,0 -8,-13.667 6.667,-7 7,19.667 z"
         style="fill:#65b2db;fill-opacity:1;fill-rule:nonzero;stroke:none"
         id="path1284" />
    </g>
    <g
       id="g1286"
       transform="matrix(0.35277777,0,0,-0.35277777,-160.60861,215.3718)">
      <g
         id="g1288"
         clip-path="url(#clipPath1292)">
        <g
           id="g1294"
           transform="translate(688.5651,263.7726)">
          <path
             d="M 0,0 -10.636,0.803 -2.91,103.178 7.726,102.375 Z"
             style="fill:#438685;fill-opacity:1;fill-rule:nonzero;stroke:none"
             id="path1296" />
        </g>
        <g
           id="g1298"
           transform="translate(684.0074,357.3122)">
          <path
             d="M 0,0 3.241,-0.245"
             style="fill:none;stroke:#ffffff;stroke-width:0.5;stroke-linecap:butt;stroke-linejoin:miter;stroke-miterlimit:10;stroke-dasharray:none;stroke-opacity:1"
             id="path1300" />
        </g>
        <g
           id="g1302"
           transform="translate(677.816,275.2678)">
          <path
             d="M 0,0 3.24,-0.245"
             style="fill:none;stroke:#ffffff;stroke-width:0.5;stroke-linecap:butt;stroke-linejoin:miter;stroke-miterlimit:10;stroke-dasharray:none;stroke-opacity:1"
             id="path1304" />
        </g>
        <g
           id="g1306"
           transform="translate(683.5944,351.8425)">
          <path
             d="M 0,0 3.241,-0.245"
             style="fill:none;stroke:#ffffff;stroke-width:0.5;stroke-linecap:butt;stroke-linejoin:miter;stroke-miterlimit:10;stroke-dasharray:none;stroke-opacity:1"
             id="path1308" />
        </g>
        <g
           id="g1310"
           transform="translate(683.1823,346.3732)">
          <path
             d="M 0,0 3.24,-0.245"
             style="fill:none;stroke:#ffffff;stroke-width:0.5;stroke-linecap:butt;stroke-linejoin:miter;stroke-miterlimit:10;stroke-dasharray:none;stroke-opacity:1"
             id="path1312" />
        </g>
        <g
           id="g1314"
           transform="translate(682.7692,340.9035)">
          <path
             d="M 0,0 3.24,-0.245"
             style="fill:none;stroke:#ffffff;stroke-width:0.5;stroke-linecap:butt;stroke-linejoin:miter;stroke-miterlimit:10;stroke-dasharray:none;stroke-opacity:1"
             id="path1316" />
        </g>
        <g
           id="g1318"
           transform="translate(682.3561,335.4338)">
          <path
             d="M 0,0 3.241,-0.245"
             style="fill:none;stroke:#ffffff;stroke-width:0.5;stroke-linecap:butt;stroke-linejoin:miter;stroke-miterlimit:10;stroke-dasharray:none;stroke-opacity:1"
             id="path1320" />
        </g>
        <g
           id="g1322"
           transform="translate(681.944,329.9641)">
          <path
             d="M 0,0 3.24,-0.245"
             style="fill:none;stroke:#ffffff;stroke-width:0.5;stroke-linecap:butt;stroke-linejoin:miter;stroke-miterlimit:10;stroke-dasharray:none;stroke-opacity:1"
             id="path1324" />
        </g>
        <g
           id="g1326"
           transform="translate(681.5309,324.4943)">
          <path
             d="M 0,0 3.24,-0.245"
             style="fill:none;stroke:#ffffff;stroke-width:0.5;stroke-linecap:butt;stroke-linejoin:miter;stroke-miterlimit:10;stroke-dasharray:none;stroke-opacity:1"
             id="path1328" />
        </g>
        <g
           id="g1330"
           transform="translate(681.1178,319.0246)">
          <path
             d="M 0,0 3.241,-0.244"
             style="fill:none;stroke:#ffffff;stroke-width:0.5;stroke-linecap:butt;stroke-linejoin:miter;stroke-miterlimit:10;stroke-dasharray:none;stroke-opacity:1"
             id="path1332" />
        </g>
        <g
           id="g1334"
           transform="translate(680.7057,313.5554)">
          <path
             d="M 0,0 3.24,-0.245"
             style="fill:none;stroke:#ffffff;stroke-width:0.5;stroke-linecap:butt;stroke-linejoin:miter;stroke-miterlimit:10;stroke-dasharray:none;stroke-opacity:1"
             id="path1336" />
        </g>
        <g
           id="g1338"
           transform="translate(680.2926,308.0856)">
          <path
             d="M 0,0 3.24,-0.245"
             style="fill:none;stroke:#ffffff;stroke-width:0.5;stroke-linecap:butt;stroke-linejoin:miter;stroke-miterlimit:10;stroke-dasharray:none;stroke-opacity:1"
             id="path1340" />
        </g>
        <g
           id="g1342"
           transform="translate(679.8795,302.6159)">
          <path
             d="M 0,0 3.241,-0.245"
             style="fill:none;stroke:#ffffff;stroke-width:0.5;stroke-linecap:butt;stroke-linejoin:miter;stroke-miterlimit:10;stroke-dasharray:none;stroke-opacity:1"
             id="path1344" />
        </g>
        <g
           id="g1346"
           transform="translate(679.4674,297.1462)">
          <path
             d="M 0,0 3.24,-0.245"
             style="fill:none;stroke:#ffffff;stroke-width:0.5;stroke-linecap:butt;stroke-linejoin:miter;stroke-miterlimit:10;stroke-dasharray:none;stroke-opacity:1"
             id="path1348" />
        </g>
        <g
           id="g1350"
           transform="translate(679.0543,291.6769)">
          <path
             d="M 0,0 3.24,-0.245"
             style="fill:none;stroke:#ffffff;stroke-width:0.5;stroke-linecap:butt;stroke-linejoin:miter;stroke-miterlimit:10;stroke-dasharray:none;stroke-opacity:1"
             id="path1352" />
        </g>
        <g
           id="g1354"
           transform="translate(678.6412,286.2072)">
          <path
             d="M 0,0 3.241,-0.245"
             style="fill:none;stroke:#ffffff;stroke-width:0.5;stroke-linecap:butt;stroke-linejoin:miter;stroke-miterlimit:10;stroke-dasharray:none;stroke-opacity:1"
             id="path1356" />
        </g>
        <g
           id="g1358"
           transform="translate(678.2291,280.7375)">
          <path
             d="M 0,0 3.24,-0.245"
             style="fill:none;stroke:#ffffff;stroke-width:0.5;stroke-linecap:butt;stroke-linejoin:miter;stroke-miterlimit:10;stroke-dasharray:none;stroke-opacity:1"
             id="path1360" />
        </g>
        <g
           id="g1362"
           transform="translate(684.4205,362.7819)">
          <path
             d="M 0,0 3.24,-0.245"
             style="fill:none;stroke:#ffffff;stroke-width:0.5;stroke-linecap:butt;stroke-linejoin:miter;stroke-miterlimit:10;stroke-dasharray:none;stroke-opacity:1"
             id="path1364" />
        </g>
        <g
           id="g1366"
           transform="translate(677.403,269.798)">
          <path
             d="M 0,0 3.241,-0.245"
             style="fill:none;stroke:#ffffff;stroke-width:0.5;stroke-linecap:butt;stroke-linejoin:miter;stroke-miterlimit:10;stroke-dasharray:none;stroke-opacity:1"
             id="path1368" />
        </g>
      </g>
    </g>
    <g
       id="g1378"
       transform="matrix(0.35277777,0,0,-0.35277777,55.311599,131.54619)">
      <path
         d="m 0,0 c 0,0 -4.417,-115.729 -52.122,-195.236 0,0 -30.92,-45.055 -7.067,7.95 0,0 -2.651,81.275 22.968,107.778 C -9.655,-52.026 0,0 0,0"
         style="fill:#7f5e6a;fill-opacity:1;fill-rule:nonzero;stroke:none"
         id="path1380" />
    </g>
    <g
       id="g1382"
       transform="matrix(0.35277777,0,0,-0.35277777,-160.60861,215.3718)">
      <g
         id="g1384" />
      <g
         id="g1396">
        <g
           clip-path="url(#clipPath1388)"
           opacity="0.399994"
           id="g1394">
          <g
             transform="translate(586.3131,150.905)"
             id="g1392">
            <path
               d="m 0,0 c -4.499,0.751 -9.177,1.87 -13.333,3.862 0.912,1.188 1.86,2.311 2.856,3.341 26.566,27.482 36.221,79.508 36.221,79.508 0,0 -1.506,-39.348 -12.214,-87.914 C 8.99,-1.08 4.463,-0.746 0,0"
               style="fill:#221a24;fill-opacity:1;fill-rule:nonzero;stroke:none"
               id="path1390" />
          </g>
        </g>
      </g>
    </g>
    <g
       id="g1398"
       transform="matrix(0.35277777,0,0,-0.35277777,37.900076,199.09245)">
      <path
         d="m 0,0 c 0,0 -10.92,-21.644 -17.22,-21.202 -6.301,0.441 3.36,17.226 3.36,17.226 0,0 -3.781,-14.576 13.86,3.976"
         style="fill:#352836;fill-opacity:1;fill-rule:nonzero;stroke:none"
         id="path1400" />
    </g>
    <g
       id="g1402"
       transform="matrix(0.35277777,0,0,-0.35277777,60.350042,198.29182)">
      <path
         d="m 0,0 c 0,0 1.178,-7.803 2.944,-7.803 1.767,0 52.564,-16.343 5.743,7.95 z"
         style="fill:#352836;fill-opacity:1;fill-rule:nonzero;stroke:none"
         id="path1404" />
    </g>
    <g
       id="g1406"
       transform="matrix(0.35277777,0,0,-0.35277777,59.224505,159.75808)">
      <path
         d="m 0,0 c 19.002,33.164 15.583,85.969 15.583,85.969 0,0 26.594,-85.317 -5.251,-196.533 -1.953,0.144 -3.991,0.293 -6.127,0.446 0,0 -22.53,78.135 -4.205,110.118"
         style="fill:#7f5e6a;fill-opacity:1;fill-rule:nonzero;stroke:none"
         id="path1408" />
    </g>
    <g
       id="g1410"
       transform="matrix(0.35277777,0,0,-0.35277777,-160.60861,215.3718)">
      <g
         id="g1412" />
      <g
         id="g1424">
        <g
           clip-path="url(#clipPath1416)"
           opacity="0.399994"
           id="g1422">
          <g
             transform="translate(645.3219,151.1823)"
             id="g1420">
            <path
               d="m 0,0 c -8.479,-0.977 -17.02,-1.048 -25.548,-1.226 0.926,2.775 2.039,5.357 3.375,7.689 19.002,33.164 15.583,85.969 15.583,85.969 0,0 11.249,-36.09 10.358,-91.918 C 2.517,0.322 1.262,0.146 0,0"
               style="fill:#221a24;fill-opacity:1;fill-rule:nonzero;stroke:none"
               id="path1418" />
          </g>
        </g>
      </g>
    </g>
    <g
       id="g1426"
       transform="matrix(0.35277777,0,0,-0.35277777,62.219694,197.56457)">
      <path
         d="M 0,0 C 0,0 17.521,-8.834 17.08,-9.57 16.638,-10.307 -5.3,-2.062 -5.3,-2.062 l -0.736,6.185 z"
         style="fill:#7f5e6a;fill-opacity:1;fill-rule:nonzero;stroke:none"
         id="path1428" />
    </g>
    <g
       id="g1430"
       transform="matrix(0.35277777,0,0,-0.35277777,64.349448,107.08155)">
      <path
         d="m 0,0 c 0,0 -13.8,-8.807 -51.513,-3.741 0,0 -13.548,-15.048 -17.394,-46.173 -4.859,-39.312 0.884,-96.292 0.884,-96.292 0,0 41.52,-20.319 91.876,3.533 0,0 22.968,87.017 -23.853,142.673"
         style="fill:#352836;fill-opacity:1;fill-rule:nonzero;stroke:none"
         id="path1432" />
    </g>
    <g
       id="g1434"
       transform="matrix(0.35277777,0,0,-0.35277777,40.04052,124.68992)">
      <path
         d="m 0,0 c 0.972,7.856 2.562,14.686 4.395,20.51 2.809,-12.085 6.047,-24.074 10.419,-35.664 5.606,-14.861 13.307,-31.181 28.218,-38.743 15.934,-8.079 36.148,-6.959 52.815,-1.881 0.744,0.227 1.479,0.473 2.217,0.713 -1.203,-22.149 -5.304,-37.694 -5.304,-37.694 -50.356,-23.853 -91.876,-3.533 -91.876,-3.533 0,0 -5.742,56.98 -0.884,96.292"
         style="fill:#221a24;fill-opacity:1;fill-rule:nonzero;stroke:none"
         id="path1436" />
    </g>
    <g
       id="g1438"
       transform="matrix(0.35277777,0,0,-0.35277777,64.518253,94.65439)">
      <path
         d="M 0,0 C 0,0 9.966,-10.088 -0.386,-24.572 L -1.098,-39.7 c 0,0 -11.534,-5.215 -50.893,0.733 l -8.871,36.57 z"
         style="fill:#5997c0;fill-opacity:1;fill-rule:nonzero;stroke:none"
         id="path1440" />
    </g>
    <g
       id="g1442"
       transform="matrix(0.35277777,0,0,-0.35277777,-160.60861,215.3718)">
      <g
         id="g1444" />
      <g
         id="g1456">
        <g
           clip-path="url(#clipPath1448)"
           opacity="0.199997"
           id="g1454">
          <g
             transform="translate(636.4957,320.697)"
             id="g1452">
            <path
               d="m 0,0 c -7.001,-2.451 -14.103,-3.546 -21.492,-2.191 -8.547,1.567 -17.483,4.124 -25.482,7.191 -3.485,1.337 -7.108,2.874 -9.8,5.301 -0.13,0.116 -0.254,0.238 -0.382,0.356 l 6.824,-28.13 c 39.359,-5.948 50.894,-0.733 50.894,-0.733 l 0.711,15.128 c 1.118,1.562 1.985,3.07 2.666,4.523 C 2.602,0.921 1.271,0.444 0,0"
               style="fill:#352836;fill-opacity:1;fill-rule:nonzero;stroke:none"
               id="path1450" />
          </g>
        </g>
      </g>
    </g>
    <g
       id="g1458"
       transform="matrix(0.35277777,0,0,-0.35277777,49.053569,128.83905)">
      <path
         d="M 0,0 -44.52,33.827 4.081,97.789 48.601,63.961 Z"
         style="fill:#ce7c75;fill-opacity:1;fill-rule:nonzero;stroke:none"
         id="path1460" />
    </g>
    <g
       id="g1462"
       transform="matrix(0.35277777,0,0,-0.35277777,45.987436,99.82237)">
      <path
         d="M 0,0 35.213,-0.903"
         style="fill:none;stroke:#ffffff;stroke-width:1;stroke-linecap:round;stroke-linejoin:round;stroke-miterlimit:10;stroke-dasharray:none;stroke-opacity:1"
         id="path1464" />
    </g>
    <g
       id="g1466"
       transform="matrix(0.35277777,0,0,-0.35277777,38.02443,110.49287)">
      <path
         d="M 0,0 3.16,-31.601"
         style="fill:none;stroke:#ffffff;stroke-width:1;stroke-linecap:round;stroke-linejoin:round;stroke-miterlimit:10;stroke-dasharray:none;stroke-opacity:1"
         id="path1468" />
    </g>
    <g
       id="g1470"
       transform="matrix(0.35277777,0,0,-0.35277777,55.771163,113.79121)">
      <path
         d="M 0,0 C 0.013,0.099 0.053,0.176 0.086,0.26 L -26.498,10.152 -28.5,10 c 0,0 -10.197,-7.71 -9.079,-11.978 0.869,-3.318 23.977,-6.765 36.254,-7.034 C -0.719,-6.038 -0.374,-3.013 0,0"
         style="fill:#ffa393;fill-opacity:1;fill-rule:nonzero;stroke:none"
         id="path1472" />
    </g>
    <g
       id="g1474"
       transform="matrix(0.35277777,0,0,-0.35277777,-160.60861,215.3718)">
      <g
         id="g1476" />
      <g
         id="g1488">
        <g
           clip-path="url(#clipPath1480)"
           opacity="0.5"
           id="g1486">
          <g
             transform="translate(594.0924,295.4069)"
             id="g1484">
            <path
               d="M 0,0 -7.23,2.69 -9.232,2.538 c 0,0 -10.198,-7.71 -9.08,-11.978 0.427,-1.632 6.237,-3.294 13.488,-4.595 C -3.263,-9.35 -1.407,-4.744 0,0"
               style="fill:#ce7c75;fill-opacity:1;fill-rule:nonzero;stroke:none"
               id="path1482" />
          </g>
        </g>
      </g>
    </g>
    <g
       id="g1490"
       transform="matrix(0.35277777,0,0,-0.35277777,46.171057,97.45558)">
      <path
         d="M 0,0 0.213,-32.806 5.332,-36.5 -1.084,-54.376 c 0,0 -12.462,1.552 -16.333,8.122 -3.87,6.57 -10.427,56.743 -1.404,65.903 z"
         style="fill:#5997c0;fill-opacity:1;fill-rule:nonzero;stroke:none"
         id="path1492" />
    </g>
    <g
       id="g1494"
       transform="matrix(0.35277777,0,0,-0.35277777,55.801467,113.69955)">
      <path
         d="m 0,0 c 0,0 16.581,14.407 3.247,-0.593 0,0 16.334,-4 6,-4 0,0 6.667,-1.667 -0.666,-2 0,0 4.333,-2.333 0,-2 0,0 5.666,-4 -13.667,-0.333 C -24.419,-5.26 0,0 0,0"
         style="fill:#ffa393;fill-opacity:1;fill-rule:nonzero;stroke:none"
         id="path1496" />
    </g>
  </g>
</svg>
